<svg width="80" height="80" viewBox="0 0 80 80" fill="none" xmlns="http://www.w3.org/2000/svg">
<rect width="80" height="80" rx="15" fill="#0FF1CF"/>
<path d="M26.74 43.17C26.74 40.44 24.52 38.19 21.82 38.19C19.06 38.19 16.84 40.44 16.84 43.17C16.84 45.93 19.06 48.12 21.82 48.12C24.52 48.12 26.74 45.93 26.74 43.17ZM13.99 43.17C13.99 38.85 17.47 35.37 21.82 35.37C26.11 35.37 29.59 38.85 29.59 43.17C29.59 47.52 26.11 51.03 21.82 51.03C17.47 51.03 13.99 47.52 13.99 43.17ZM17.59 53.31C18.49 54.69 20.05 55.59 21.82 55.59C23.53 55.59 25.06 54.69 25.96 53.31C26.29 52.86 26.74 52.62 27.22 52.62C27.46 52.62 27.73 52.68 27.94 52.83C28.63 53.31 28.78 54.15 28.39 54.84C27.01 57.03 24.55 58.47 21.82 58.47C19 58.47 16.6 57.03 15.16 54.84C14.77 54.15 14.95 53.31 15.61 52.83C15.85 52.68 16.09 52.62 16.33 52.62C16.84 52.62 17.32 52.86 17.59 53.31ZM44.3774 43.17C44.3774 40.44 42.1574 38.19 39.4574 38.19C36.6974 38.19 34.4774 40.44 34.4774 43.17C34.4774 45.93 36.6974 48.12 39.4574 48.12C42.1574 48.12 44.3774 45.93 44.3774 43.17ZM31.6274 43.17C31.6274 38.85 35.1074 35.37 39.4574 35.37C43.7474 35.37 47.2274 38.85 47.2274 43.17C47.2274 47.52 43.7474 51.03 39.4574 51.03C35.1074 51.03 31.6274 47.52 31.6274 43.17ZM35.2274 53.31C36.1274 54.69 37.6874 55.59 39.4574 55.59C41.1674 55.59 42.6974 54.69 43.5974 53.31C43.9274 52.86 44.3774 52.62 44.8574 52.62C45.0974 52.62 45.3674 52.68 45.5774 52.83C46.2674 53.31 46.4174 54.15 46.0274 54.84C44.6474 57.03 42.1874 58.47 39.4574 58.47C36.6374 58.47 34.2374 57.03 32.7974 54.84C32.4074 54.15 32.5874 53.31 33.2474 52.83C33.4874 52.68 33.7274 52.62 33.9674 52.62C34.4774 52.62 34.9574 52.86 35.2274 53.31ZM49.2648 43.17C49.2648 38.85 52.7448 35.37 57.0648 35.37C61.3848 35.37 64.8648 38.85 64.8648 43.17C64.8648 47.52 61.3848 51.03 57.0648 51.03C52.7448 51.03 49.2648 47.52 49.2648 43.17ZM61.9848 43.17C61.9848 40.44 59.7648 38.22 57.0648 38.22C54.3048 38.22 52.0848 40.44 52.0848 43.17C52.0848 45.93 54.3048 48.15 57.0648 48.15C59.7648 48.15 61.9848 45.93 61.9848 43.17Z" fill="#01082E"/>
</svg>
