<svg width="300" height="290" viewBox="0 0 300 290" fill="none" xmlns="http://www.w3.org/2000/svg">
<path d="M250.038 88.9174C240.063 70.7638 214.065 54.4475 193.528 51.6695C175.54 49.2361 155.038 53.2182 144.336 67.8052C140.4 73.1693 138.049 79.6162 133.739 84.6859C118.921 102.121 90.6155 95.4469 69.0481 103.194C54.0386 108.585 42.4354 121.391 36.2549 136.065C30.0743 150.74 28.8894 167.135 30.3466 183.012C31.4975 195.549 34.4233 208.346 41.8887 218.514C57.5371 239.828 88.9726 243.532 114.165 235.634C122.011 233.174 129.636 229.785 137.786 228.65C145.935 227.515 155.045 229.058 160.662 235.083C165.144 239.891 166.775 246.809 171.228 251.644C177.286 258.223 187.593 259.523 196.093 256.793C204.592 254.064 211.579 247.992 217.705 241.518C243.375 214.396 280.152 143.721 250.038 88.9174Z" fill="#031542"/>
<g clip-path="url(#clip0_4354_19575)">
<path d="M197.534 89.123C195.198 89.286 177.525 101.291 177.525 101.291C177.525 101.291 168.526 121.463 183.03 132.635C197.534 143.807 208.208 133.468 211.703 131.132C215.206 128.796 218.04 123.128 218.04 123.128L213.876 120.965L216.709 101.291L197.534 89.123Z" fill="white"/>
<path d="M101.013 116.636L128.518 129.474C128.518 129.474 122.688 134.807 121.846 138.981C121.004 143.154 122.76 171.854 122.76 171.854C122.76 171.854 141.012 203.325 142.017 203.325C143.022 203.325 215.705 212.496 216.203 211.998C216.701 211.5 254.88 195.493 254.88 195.493C254.88 195.493 254.382 165.816 254.047 160.148C253.712 154.48 251.05 137.478 240.711 129.809C230.371 122.141 218.04 123.137 218.04 123.137C218.04 123.137 204.369 146.64 184.361 133.802C169.631 124.35 176.358 104.124 176.358 104.124C176.358 104.124 164.19 94.2921 153.687 88.7875C143.185 83.2829 114.34 71.7848 114.34 71.7848L101.004 116.627L101.013 116.636Z" fill="#5C5AFE"/>
<path d="M143.52 200.654C142.017 193.818 140.858 193.32 140.858 193.32C140.858 193.32 138.024 174.145 137.354 170.65C136.693 167.146 134.521 158.808 131.687 157.649C128.853 156.481 120.18 157.151 120.18 157.151L72.5033 164.82C60.1541 168.568 51.3359 170.487 49.996 176.49C48.6651 182.492 52.4948 206.167 54.1697 214.497C55.8356 222.835 59.0043 239.666 62.1731 241.676C65.3418 243.677 86.0112 240.68 94.3496 239.503C102.688 238.335 133.95 232.532 138.368 231.002C142.777 229.462 143.864 227.498 144.534 223.659C145.195 219.829 145.032 207.489 143.529 200.654H143.52Z" fill="#5C5AFE"/>
<path d="M80.2344 206.694C80.7414 206.694 81.1217 206.712 81.4929 206.694C82.9052 206.594 84.3086 206.486 85.7209 206.377C86.0831 206.35 86.4452 206.314 86.8164 206.277C85.0328 199.985 83.2855 193.793 81.5291 187.6C80.6871 193.946 79.9809 200.248 80.2344 206.703V206.694Z" fill="#0FF1CF"/>
<path d="M111.94 199.189C109.958 200.592 108.817 202.547 108.31 204.865C107.857 206.938 107.477 209.048 107.296 211.167C107.223 212.009 107.749 212.923 108.102 213.765C108.156 213.892 108.898 213.937 109.079 213.765C109.632 213.249 110.22 212.669 110.501 211.999C111.307 210.098 112.465 208.287 112.375 206.097C112.375 205.897 112.502 205.68 112.574 205.472C113.353 203.317 113.036 201.18 112.61 198.863C112.212 199.053 112.058 199.107 111.931 199.189H111.94Z" fill="#0FF1CF"/>
<path d="M143.519 200.655C142.016 193.819 140.858 193.321 140.858 193.321C140.858 193.321 138.024 174.146 137.354 170.651C136.693 167.147 134.52 158.809 131.686 157.65C128.852 156.482 120.179 157.152 120.179 157.152L72.5028 164.82C60.1536 168.569 51.3354 170.488 49.9955 176.491C48.6646 182.493 52.4943 206.168 54.1692 214.498C55.8351 222.836 59.0038 239.667 62.1726 241.677C65.3414 243.677 86.0108 240.681 94.3491 239.504C102.688 238.336 133.95 232.532 138.368 231.002C142.777 229.463 143.863 227.499 144.533 223.66C145.194 219.83 145.031 207.49 143.528 200.655H143.519ZM94.9376 231.862C93.1812 228.558 92.1763 225.054 91.1623 221.55C90.1483 218.029 89.1071 214.516 88.0388 210.867C85.6124 210.143 83.0231 210.659 80.4699 210.451C80.0535 211.356 79.8362 212.153 80.0082 213.149C80.1712 214.081 79.9177 215.104 79.8 216.082C79.4741 218.689 79.13 221.288 78.7769 223.886C78.7407 224.158 78.623 224.411 78.5415 224.674C78.0164 226.267 77.437 226.593 75.8435 226.168C75.7349 226.141 75.6444 226.086 75.5357 226.05C73.2361 225.416 73.1908 225.262 73.6435 222.836C73.9785 221.016 74.1505 219.16 74.3769 217.313C74.6032 215.412 74.8114 213.511 75.0378 211.61C75.1283 210.813 75.1464 210.098 74.3135 209.618C74.0509 209.473 73.8789 209.129 73.7069 208.848C73.0822 207.843 73.5349 206.884 74.7118 206.693C74.9744 206.648 75.246 206.693 75.6444 206.693C75.916 203.498 76.1785 200.51 76.4139 197.522C76.6493 194.471 76.8666 191.411 77.0839 188.351C77.3012 185.291 77.5185 182.231 77.6905 179.17C77.7448 178.175 78.1613 177.369 78.7679 176.654C79.5103 175.775 80.4247 175.803 81.1309 176.69C81.3663 176.989 81.5383 177.342 81.665 177.704C82.6428 180.438 83.6115 183.172 84.5712 185.906C85.4404 188.387 86.0832 190.967 87.233 193.312C87.903 194.679 88.6182 196.01 89.0799 197.468C89.8585 199.921 90.6009 202.384 91.3614 204.837C91.461 205.145 91.5516 205.462 91.6783 205.851C93.9598 206.349 96.2413 205.933 98.5047 205.761C98.3327 206.413 98.1516 206.965 98.034 207.535C97.9796 207.798 98.0611 208.088 98.034 208.359C97.9434 209.201 98.4504 210.306 97.5994 210.822C96.7031 211.365 95.5895 211.61 94.4759 211.229C94.2314 211.148 93.9417 211.193 93.5071 211.175C95.7615 217.585 98.1426 223.841 99.9533 230.405C98.2512 230.903 96.694 231.365 94.9648 231.872L94.9376 231.862ZM125.611 216.028C124.588 217.44 123.167 218.472 121.646 219.115C119.618 219.966 118.042 219.694 117.037 217.694C116.404 216.435 115.951 215.077 115.444 213.755C115.272 213.303 115.163 212.832 114.991 212.27C113.561 214.353 112.348 216.426 110.293 217.802C108.79 218.807 107.522 218.581 106.255 217.268C103.72 214.661 103.81 211.419 103.864 208.187C103.901 205.842 104.86 203.679 105.811 201.623C106.934 199.179 108.781 197.178 110.999 195.594C111.904 194.951 112.873 195.014 113.787 195.594C114.249 195.883 114.711 196.237 115.009 196.68C116.657 199.052 117.327 201.687 116.992 204.575C116.956 204.892 116.884 205.227 116.956 205.535C117.599 208.712 118.921 211.646 120.242 214.67C121.745 214.262 123.085 213.357 124.652 213.737C124.987 214.19 125.294 214.615 125.611 215.05V216.037V216.028Z" fill="#0FF1CF"/>
<path d="M83.0053 109.963L101.013 116.636L114.847 71.793C114.847 71.793 90.0037 60.9559 80.3344 59.788C70.6652 58.62 61.1589 59.788 57.1572 62.9567C53.1555 66.1255 42.8163 77.7956 44.9891 97.967C47.1529 118.138 54.9934 152.814 57.4922 156.481C59.991 160.147 62.1729 167.082 67.1614 165.48C72.15 163.877 88.6638 161.478 93.6704 162.981C98.668 164.484 110.338 172.65 113.344 170.812C116.341 168.975 113.009 163.479 113.009 163.479L111.506 161.976C111.506 161.976 116.676 165.48 120.179 165.48C123.683 165.48 125.684 161.641 125.684 161.641C125.684 161.641 128.681 159.224 128.02 156.309C127.359 153.393 126.517 152.977 126.517 152.977C126.517 152.977 128.02 149.138 126.019 147.644C124.018 146.141 113.516 143.145 106.843 142.475C100.171 141.805 89.8407 143.47 89.8407 143.47L85.839 141.135L83.0053 109.963Z" fill="white"/>
<path d="M145.023 190.649C145.023 190.649 145.856 185.977 148.862 184.484C151.858 182.981 152.193 182.981 152.193 182.981C152.193 182.981 153.361 179.812 156.032 178.481C158.703 177.15 160.704 176.643 160.704 176.643L165.538 173.139C165.538 173.139 167.874 165.136 173.542 165.634C179.209 166.132 184.877 171.465 186.38 178.3C187.883 185.135 187.376 190.803 187.376 190.803L189.712 195.303L213.55 203.306L213.215 191.473C213.215 191.473 228.552 194.144 236.89 194.144C245.228 194.144 255.061 194.307 255.061 194.307C255.061 194.307 253.73 214.65 253.06 221.486C252.39 228.321 246.894 247.995 236.392 250.494C225.89 252.992 219.054 255.328 206.551 249.824C194.048 244.319 185.882 239.656 176.213 231.481C166.543 223.315 160.541 214.143 158.54 211.644C156.539 209.146 153.542 203.641 153.542 203.641L145.041 190.64L145.023 190.649Z" fill="white"/>
<rect x="69.5049" y="173.423" width="52.3707" height="59.239" fill="#0FF1CF"/>
<path d="M74.8055 178.606C74.8055 179.843 74.7812 181.08 74.8055 182.317C74.854 184.31 74.9997 184.527 76.8449 185.187C78.7752 185.872 80.7418 186.484 82.6721 187.169C83.4247 187.433 84.1774 187.757 84.8572 188.177C86.0712 188.934 86.1805 190.339 84.9179 190.987C83.7282 191.612 82.3079 191.936 80.9604 192.104C79.5886 192.284 78.1682 192.104 76.7721 192.104C74.9026 192.116 74.6598 192.308 74.3441 194.134C73.895 196.704 73.4944 199.286 73.0695 201.856C73.0088 202.216 72.9602 202.588 72.8145 202.912C72.4746 203.669 72.0376 204.317 71.0542 204.329C70.0466 204.341 69.6096 203.705 69.379 202.888C68.9055 201.219 68.4563 199.538 68.0436 197.845C66.8903 193.125 66.8903 193.137 62.0586 192.573C59.6549 192.296 57.2634 191.936 54.8718 191.6C54.5077 191.552 54.1435 191.456 53.8157 191.324C53.0387 191.011 52.3225 190.627 52.3346 189.654C52.3468 188.802 53.1723 187.853 54.1313 187.673C56.0615 187.325 58.0161 187.048 59.9584 186.736C60.6019 186.628 61.2453 186.496 61.9008 186.4C63.7582 186.136 64.8751 185.115 65.5306 183.35C66.5139 180.696 67.6065 178.078 68.7477 175.496C69.3304 174.175 70.0466 172.866 70.8964 171.701C71.2485 171.209 72.1104 170.884 72.766 170.848C73.6279 170.812 74.2956 171.389 74.3927 172.325C74.6234 174.415 74.8297 176.505 75.0361 178.594C74.9511 178.594 74.8783 178.594 74.7933 178.606H74.8055ZM79.4914 189.546C79.5157 189.426 79.5279 189.306 79.5521 189.186C77.7919 188.49 75.9587 187.937 74.2834 187.072C72.5596 186.172 71.7826 184.623 71.8919 182.593C72.0012 180.528 71.9162 178.45 71.9162 175.928C71.4427 176.817 71.1514 177.309 70.9328 177.826C69.8888 180.299 68.8448 182.773 67.8251 185.247C67.0724 187.084 66.0526 188.55 63.8068 188.79C62.8841 188.886 61.9979 189.342 61.2088 189.594C63.1148 189.931 65.1179 190.291 67.1088 190.639C68.2378 190.831 68.9541 191.456 69.3183 192.513C69.8888 194.23 70.4715 195.935 71.0178 197.556C71.2242 195.947 71.4063 194.23 71.6612 192.525C71.8555 191.168 73.3123 189.606 74.502 189.57C76.1651 189.498 77.8404 189.558 79.5157 189.558L79.4914 189.546Z" fill="#121213"/>
<path d="M246.649 116.818C245.318 117.288 244.712 116.582 244.078 115.985C242.865 114.835 241.498 113.975 239.904 113.441C239.253 113.223 238.682 113.196 237.994 113.395C235.604 114.101 233.458 115.315 231.349 116.582C230.643 117.008 229.936 117.162 229.158 117.098C228.171 117.017 227.601 116.356 227.926 115.432C228.361 114.21 228.968 113.042 229.556 111.874C229.746 111.494 230.117 111.204 230.38 110.851C231.249 109.692 231.883 108.488 231.693 106.922C231.476 105.129 231.412 103.319 231.313 101.517C231.222 100.005 231.159 98.4931 231.104 96.9902C231.077 96.3202 231.394 95.8132 232.055 95.6231C232.743 95.4239 233.359 95.5688 233.82 96.1663C235.061 97.7597 236.355 99.326 237.532 100.956C238.8 102.703 239.425 102.902 241.353 101.861C242.032 101.499 242.648 101.037 243.327 100.675C243.752 100.449 244.223 100.213 244.694 100.159C245.635 100.05 246.26 100.72 246.151 101.671C245.997 103.029 245.318 104.188 244.458 105.166C243.046 106.768 243.318 107.031 244.06 108.841C244.893 110.851 245.762 112.852 246.514 114.889C246.722 115.46 246.604 116.148 246.631 116.809L246.649 116.818ZM243.218 112.508C242.865 111.603 242.557 110.842 242.276 110.073C241.996 109.303 241.779 108.506 241.462 107.755C241.054 106.786 241.235 105.944 241.833 105.138C242.168 104.686 242.476 104.215 242.802 103.753C242.394 103.753 242.204 103.943 241.978 104.052C239.977 104.966 238.392 105.709 236.464 102.947C235.604 101.716 234.527 100.648 233.467 99.3984C233.467 99.7877 233.458 100.05 233.467 100.322C233.576 102.504 233.657 104.695 233.802 106.877C233.911 108.524 233.621 110.018 232.616 111.376C231.992 112.218 231.503 113.16 230.941 114.083C232.734 113.25 234.436 112.39 236.192 111.648C237.415 111.132 238.709 110.878 240.031 111.34C241.054 111.702 242.068 112.083 243.227 112.517L243.218 112.508Z" fill="#5C5AFE"/>
<path d="M97.2829 54.0585C97.5635 56.3762 97.8532 58.4767 98.0615 60.5952C98.1701 61.6907 96.9931 62.3607 95.9972 61.8174C95.7166 61.6635 95.4902 61.401 95.2548 61.1746C94.4762 60.4051 93.5799 59.7079 92.9462 58.8297C91.3075 56.5392 89.0441 56.5392 86.6177 56.8198C85.2597 56.9738 83.8926 57.0643 82.5255 57.0462C81.1131 57.019 80.5518 55.9779 81.3847 54.828C82.0728 53.8774 82.9691 53.0445 83.8654 52.2659C85.0605 51.2247 86.3461 50.3012 87.5774 49.3053C87.7222 49.1876 87.7947 48.9341 87.8399 48.7259C88.1568 47.06 88.4465 45.3942 88.7725 43.7374C88.9716 42.7234 89.2161 41.7184 89.4877 40.7225C89.6778 40.0344 90.1577 39.5908 90.882 39.5184C91.5881 39.446 92.0499 39.8896 92.2853 40.46C92.9733 42.1258 93.598 43.8189 94.2227 45.5119C94.5939 46.5259 94.9018 47.567 95.2911 48.744C96.5767 48.5539 97.7536 48.3909 98.9216 48.2099C99.6187 48.1012 100.316 47.9201 101.013 47.8296C101.773 47.721 102.452 47.9745 102.833 48.6535C103.222 49.3597 102.815 49.9753 102.317 50.4008C101.239 51.3152 100.099 52.1572 98.9578 52.9992C98.4327 53.3885 97.8623 53.6963 97.2738 54.0675L97.2829 54.0585ZM84.5535 54.9729C85.4498 54.8914 86.3551 54.8371 87.2424 54.7375C89.714 54.4478 92.077 54.4025 93.8153 56.6659C94.3042 57.3087 94.9832 57.8067 95.6623 58.4585C95.4812 57.1548 95.273 56.0231 95.1734 54.8914C95.0738 53.7326 95.4088 52.7367 96.4861 52.0757C97.1923 51.6412 97.8623 51.1251 98.8129 50.4642C97.4096 50.6 96.3866 50.7177 95.3544 50.8082C94.4129 50.8897 93.7701 50.437 93.4351 49.5679C93.1001 48.7078 92.8466 47.8024 92.4663 46.9605C92.0137 45.9646 92.0861 44.7242 91.1264 43.8098C90.9363 44.2353 90.7371 44.516 90.6737 44.8238C90.3116 46.6436 89.9585 48.4724 89.6597 50.3012C89.5601 50.9169 89.2704 51.1885 88.7272 51.4963C87.17 52.3655 85.7757 53.4791 84.5535 54.982V54.9729Z" fill="#5C5AFE"/>
<path d="M131.704 203.179C131.704 203.179 126.815 205.624 125.702 207.851C124.588 210.078 121.637 219.123 121.637 219.123C121.637 219.123 132.374 221.196 136.15 218.525C139.925 215.854 145.04 211.853 145.04 211.853L131.704 203.179Z" fill="white"/>
<path d="M218.773 254.125C218.574 254.043 218.366 253.871 218.185 253.898C216.166 254.188 214.301 253.4 212.363 253.102C211.132 252.912 209.982 252.287 208.76 252.024C205.238 251.282 202.115 249.535 198.855 248.149C196.71 247.244 194.763 245.859 192.762 244.637C189.53 242.672 186.298 240.707 183.129 238.652C181.572 237.647 180.078 236.506 178.657 235.311C176.267 233.292 173.922 231.228 171.64 229.101C170.409 227.951 169.35 226.611 168.218 225.361C167.883 224.999 167.539 224.655 167.213 224.275C165.149 221.858 162.922 219.549 161.066 216.987C158.992 214.117 156.856 211.229 155.778 207.77C155.751 207.671 155.652 207.598 155.507 207.417C152.356 209.454 149.196 211.5 145.91 213.637C145.991 214.642 146.109 215.719 146.145 216.806C146.172 217.675 146.136 218.553 146.064 219.413C145.937 220.934 145.774 222.464 145.611 223.985C145.367 226.176 144.479 227.887 142.759 229.472C139.971 232.052 136.503 232.74 133.126 233.709C130.51 234.451 127.839 235.003 125.168 235.51C120.976 236.307 116.766 236.986 112.565 237.738C110.999 238.018 109.451 238.371 107.885 238.652C105.947 239.005 104.01 239.295 102.072 239.657C100.307 239.983 98.5595 240.454 96.785 240.716C94.2047 241.106 91.6154 241.377 89.017 241.676C86.0836 242.011 83.1412 242.337 80.2078 242.609C77.2111 242.889 74.2052 243.106 71.1995 243.324C69.4521 243.451 67.7048 243.577 65.9574 243.65C64.029 243.731 62.2997 243.116 60.6973 242.056C59.801 241.468 59.3664 240.68 59.0948 239.675C58.8141 238.625 58.3433 237.629 58.0174 236.597C57.4561 234.831 56.8766 233.066 56.424 231.273C55.754 228.621 55.1564 225.95 54.5951 223.279C54.2511 221.622 54.0338 219.938 53.7622 218.272C53.0741 214.072 52.3951 209.871 51.6889 205.67C51.0642 201.949 50.3852 198.246 49.7786 194.525C49.3983 192.207 49.0453 189.88 48.7918 187.544C48.4206 184.176 48.2214 180.781 48.5383 177.423C48.7465 175.177 49.163 172.805 51.4535 171.474C52.3046 170.976 53.1556 170.478 54.0157 169.999C55.7811 169.012 57.5285 167.998 59.3302 167.074C60.1993 166.631 61.168 166.368 62.1006 166.033C62.5985 165.852 63.1055 165.671 63.8479 165.399C61.331 164.05 60.2717 161.714 58.796 159.732C58.3343 159.116 57.6824 158.618 57.3655 157.948C56.6231 156.382 55.926 154.77 55.3918 153.123C54.5951 150.678 53.907 148.206 53.2642 145.717C52.2955 141.959 51.4173 138.175 50.4667 134.409C50.1136 133.033 49.5794 131.711 49.2625 130.335C48.9638 129.058 48.9095 127.736 48.6378 126.451C48.2214 124.468 47.6419 122.521 47.2526 120.539C46.7275 117.859 46.3925 115.152 45.8222 112.481C44.9802 108.515 44.5999 104.487 44.1201 100.476C43.7127 97.0626 43.6674 93.6132 43.9028 90.1819C44.1201 86.986 44.9078 83.8715 45.7407 80.7752C46.7909 76.855 48.321 73.1339 50.2132 69.5577C51.4264 67.2581 52.9926 65.2573 55.0025 63.5733C56.3515 62.4507 57.6915 61.3823 59.2939 60.6128C61.6932 59.463 64.2372 59.2366 66.8084 59.1099C68.6192 59.0193 70.4299 59.0827 72.2406 59.0827C74.0332 59.0827 75.8168 58.9922 77.6185 59.0284C80.0539 59.0737 82.3988 59.4449 84.7618 59.9338C89.2705 60.8753 93.6072 62.3511 97.8986 63.9807C99.4829 64.5783 101.085 65.1124 102.751 65.7009C103.992 62.6136 105.232 59.6259 106.409 56.6201C108.446 51.4052 111.072 46.471 113.86 41.6273C114.494 40.5319 115.879 39.9796 117.165 40.1788C117.708 40.2602 118.26 40.2331 118.803 40.2874C121.302 40.5319 123.819 40.1516 126.309 40.3779C128.753 40.5952 131.225 40.894 133.597 41.5096C135.082 41.899 136.557 42.6776 137.662 43.8998C138.613 44.9591 139.59 45.9912 140.541 47.0505C141.582 48.2093 142.841 48.7978 144.434 48.8974C146.806 49.0423 148.979 48.2818 151.197 47.7204C152.845 47.304 154.502 46.9328 156.122 46.4529C159.128 45.5566 162.089 46.0093 165.04 46.6702C167.648 47.2496 170.02 48.3542 172.002 50.183C174.112 52.1386 175.85 54.3567 176.982 57.0366C178.114 59.7165 179.354 62.3149 181.264 64.5964C182.803 66.4252 184.388 68.1454 186.461 69.3133C189.621 71.0878 192.934 72.5092 196.501 73.2878C198.104 73.6409 199.688 74.0936 201.273 74.501C205.646 75.6146 208.905 78.3669 211.875 81.6081C213.631 83.5184 215.252 85.5464 216.447 87.7917C217.85 90.4263 219.063 93.2329 219.19 96.3383C219.235 97.3795 219.416 98.4116 219.407 99.4528C219.38 101.698 219.126 103.952 219.217 106.198C219.416 111.277 218.538 116.202 217.343 121.1C217.307 121.263 217.261 121.417 217.252 121.58C217.243 121.688 217.28 121.797 217.307 122.06C217.922 122.06 218.583 122.168 219.19 122.042C221.109 121.634 223.001 121.86 224.903 122.06C226.306 122.205 227.727 122.232 229.14 122.313C229.411 122.331 229.683 122.367 229.946 122.431C232.816 123.182 235.441 124.432 238.021 125.907C240.529 127.347 242.168 129.619 244.178 131.548C245.156 132.48 245.961 133.603 246.858 134.626C248.705 136.727 249.818 139.252 250.814 141.797C251.566 143.716 252.027 145.753 252.57 147.754C253.141 149.863 253.802 151.964 254.164 154.109C254.617 156.78 254.888 159.487 255.115 162.194C255.323 164.702 255.187 167.246 255.513 169.736C255.993 173.403 255.703 177.06 255.812 180.718C255.839 181.587 256.12 182.465 256.047 183.316C255.866 185.39 256.147 187.481 256.002 189.518C255.803 192.298 255.938 195.068 255.812 197.838C255.766 198.807 255.812 199.785 255.785 200.754C255.676 203.904 255.585 207.055 255.404 210.206C255.259 212.813 254.906 215.411 254.825 218.019C254.761 219.993 254.408 221.912 254.173 223.849C253.847 226.584 252.743 229.11 252.317 231.808C252.199 232.586 251.611 233.283 251.303 234.044C250.045 237.204 248.551 240.246 246.84 243.179C245.645 245.225 244.114 247.036 242.43 248.647C240.855 250.159 238.872 251.209 236.754 251.816C234.337 252.513 231.874 253.056 229.42 253.627C229.067 253.708 228.669 253.627 228.298 253.6C227.573 253.536 226.867 253.536 226.333 254.152H218.746L218.773 254.125ZM144.235 191.112C144.434 189.744 144.262 188.432 144.823 187.653C146.344 185.535 147.983 183.389 150.645 182.52C151.252 182.32 151.695 182.031 152.048 181.479C152.428 180.881 152.89 180.329 153.388 179.822C154.936 178.255 156.512 176.581 158.694 176.074C160.061 175.757 161.048 175.087 162.08 174.299C162.731 173.801 163.42 173.33 164.144 172.95C164.986 172.515 165.393 171.918 165.638 170.967C166.416 167.971 169.35 164.331 173.542 164.983C174.402 165.119 175.253 165.327 176.067 165.626C177.136 166.015 178.159 166.531 179.2 166.984C189.422 160.393 199.706 153.992 210.48 148.197C212.001 149.393 213.377 150.56 214.844 151.602C216.573 152.833 217.442 154.653 218.466 156.4C219.344 157.903 219.072 159.596 219.425 161.171C219.652 162.194 218.801 163.109 217.741 163.48C217.08 163.706 216.401 163.969 215.831 164.367C214.075 165.58 212.372 166.857 210.652 168.115C207.022 170.768 203.4 173.421 199.77 176.074C196.194 178.681 192.599 181.27 189.041 183.896C188.733 184.122 188.453 184.584 188.417 184.964C188.272 186.367 188.371 187.807 188.136 189.192C187.747 191.528 189.566 193.719 191.631 194.769C193.767 195.856 196.094 196.58 198.321 197.494C202.64 199.251 207.04 200.745 211.558 201.922C211.793 201.985 212.056 201.894 212.427 201.876C212.427 201.387 212.445 201.007 212.427 200.636C212.327 199.07 212.137 197.494 212.11 195.928C212.065 193.239 212.065 190.541 212.137 187.852C212.219 185.127 211.865 182.411 212.065 179.677C212.246 177.16 212.101 174.625 212.101 172.09C212.101 171.701 212.01 171.284 212.137 170.949C212.273 170.596 212.59 170.107 212.889 170.062C213.187 170.017 213.694 170.361 213.866 170.678C214.102 171.085 214.138 171.619 214.183 172.108C214.238 172.706 214.183 173.321 214.219 173.919C214.31 175.331 214.645 176.771 214.482 178.156C214.274 179.912 214.238 181.641 214.319 183.389C214.373 184.421 214.6 185.48 214.419 186.476C214.147 188.006 214.328 189.482 214.355 190.958C215.052 191.112 215.632 191.311 216.229 191.365C220.15 191.727 224.07 192.08 227.999 192.406C229.185 192.506 230.38 192.506 231.566 192.569C236.165 192.832 240.756 193.103 245.355 193.366C247.156 193.475 248.967 193.538 250.769 193.692C253.132 193.891 253.711 193.465 253.711 191.048C253.711 187.87 253.566 184.693 253.494 181.515C253.494 181.189 253.566 180.863 253.566 180.537C253.594 178.011 253.684 175.485 253.612 172.968C253.548 170.859 253.132 168.749 253.132 166.649C253.132 162.964 252.67 159.324 252.082 155.721C251.584 152.67 250.868 149.628 250.008 146.649C249.021 143.236 247.899 139.886 245.798 136.889C244.404 134.889 242.747 133.159 241.127 131.394C239.841 130 238.266 128.859 236.736 127.709C234.825 126.279 232.634 125.364 230.299 124.921C228.497 124.577 226.668 124.26 224.839 124.124C222.938 123.988 221.019 124.097 219.099 124.097C218.773 124.649 218.466 125.228 218.112 125.781C216.754 127.872 215.07 129.638 213.061 131.14C211.087 132.607 209.385 134.4 207.176 135.595C203.799 137.433 200.449 139.189 196.429 138.827C196.32 138.818 196.212 138.836 196.103 138.872C194.727 139.243 193.378 139.044 192.038 138.709C191.296 138.528 190.553 138.329 189.847 138.03C187.973 137.252 186.026 136.6 184.297 135.577C182.179 134.327 180.395 132.598 178.901 130.624C177.978 129.402 176.973 128.189 176.339 126.813C175.588 125.192 175.135 123.427 174.664 121.698C174.32 120.439 174.03 119.144 173.949 117.85C173.813 115.767 173.849 113.676 173.858 111.585C173.858 110.725 173.895 109.837 174.085 109.004C174.456 107.366 174.954 105.745 175.416 104.043C172.6 101.952 169.83 99.8964 167.059 97.8412C165.873 96.963 164.732 96.0033 163.474 95.2428C160.993 93.749 158.458 92.3276 155.905 90.9514C154.031 89.9374 152.021 89.1407 150.201 88.0271C147.702 86.4971 144.986 85.4378 142.279 84.4509C140.523 83.8081 138.893 82.939 137.191 82.2419C133.552 80.739 130.003 79.0278 126.39 77.4615C124.136 76.4838 121.836 75.5875 119.555 74.673C118.251 74.1479 116.947 73.6409 115.571 73.0887C115.435 73.4055 115.318 73.6409 115.236 73.8944C114.593 75.8138 113.933 77.7332 113.317 79.6706C112.746 81.4451 112.258 83.2378 111.678 85.0123C110.981 87.1399 110.221 89.2403 109.496 91.3588C109.143 92.391 108.817 93.4412 108.482 94.4733C107.55 97.3342 106.536 100.177 105.721 103.074C104.861 106.116 104.191 109.222 103.457 112.3C103.122 113.721 102.851 115.152 102.525 116.691C111.551 119.959 119.736 124.939 128.645 128.497C129.224 128.017 129.84 127.365 130.591 126.921C132.945 125.536 135.344 124.223 137.734 122.902C138.015 122.748 138.35 122.657 138.667 122.567C140.233 122.123 141.79 121.625 143.375 121.263C144.842 120.928 146.326 120.593 147.829 120.511C148.726 120.457 149.287 120.204 149.649 119.443C150.265 118.158 150.844 116.854 151.496 115.586C151.949 114.708 152.447 113.857 153.008 113.042C153.307 112.608 153.823 112.472 154.33 112.78C154.81 113.078 154.945 113.54 154.764 114.065C154.674 114.319 154.511 114.554 154.384 114.799C153.433 116.655 152.447 118.493 151.559 120.376C150.835 121.906 149.513 122.775 147.829 122.712C147.349 122.693 146.851 122.73 146.381 122.838C144.688 123.255 143.022 123.726 141.329 124.151C137.59 125.084 134.385 127.093 131.261 129.221C130.229 129.927 129.188 130.715 128.4 131.675C126.771 133.639 125.186 135.64 123.991 137.958C122.914 140.04 122.868 142.267 122.452 144.44C122.416 144.63 122.524 144.857 122.542 144.938C124.073 145.825 125.485 146.667 126.915 147.473C128.092 148.134 128.455 149.148 128.201 150.388C127.984 151.439 127.64 152.471 127.368 153.43C127.902 154.272 128.427 155.096 128.925 155.884C129.713 156.156 130.501 156.391 131.252 156.699C134.33 157.984 135.788 160.646 136.63 163.598C137.879 167.961 138.866 172.398 139.953 176.807C140.07 177.287 140.161 177.776 140.206 178.264C140.333 179.559 140.423 180.863 140.55 182.158C140.695 183.733 140.885 185.308 141.021 186.893C141.166 188.577 141.265 190.27 141.419 191.963C141.437 192.189 141.637 192.397 141.754 192.624C142.705 192.071 143.547 191.573 144.271 191.157L144.235 191.112ZM114.956 164.485L114.802 164.666C115.055 165.209 115.363 165.725 115.562 166.287C115.779 166.902 115.888 167.554 116.069 168.197C116.757 170.705 114.956 172.325 112.783 172.389C109.895 172.479 107.468 171.293 105.232 169.627C103.792 168.55 102.416 167.391 100.678 166.785C100.271 166.64 99.8632 166.431 99.5282 166.169C98.134 165.101 96.4319 164.91 94.8203 164.476C94.1956 164.304 93.5347 164.222 92.8919 164.213C91.552 164.204 90.203 164.313 88.8631 164.304C87.4597 164.295 86.0655 164.195 84.6712 164.159C84.3996 164.159 84.1371 164.259 83.8655 164.286C82.5255 164.44 81.249 165.01 79.8547 164.829C79.5559 164.793 79.23 165.01 78.9131 165.064C77.0028 165.408 75.0835 165.734 73.1641 166.06C73.0102 166.087 72.8291 166.015 72.6752 166.033C71.1542 166.214 69.5336 165.843 68.1665 166.902C67.9764 167.047 67.6414 167.029 67.3698 167.038C64.3097 167.092 61.6298 168.405 58.9771 169.7C56.9128 170.714 54.9844 171.999 52.9655 173.095C51.7432 173.765 51.1185 174.752 50.9465 176.092C50.7926 177.332 50.8017 178.581 50.7654 179.831C50.693 182.402 50.5844 184.955 50.9375 187.508C51.2453 189.726 51.4626 191.963 51.8157 194.172C52.0511 195.656 52.5037 197.114 52.7572 198.599C53.1647 200.953 53.4544 203.334 53.8527 205.697C54.2601 208.178 54.7219 210.649 55.1836 213.112C55.3466 213.963 55.6635 214.778 55.7902 215.629C55.917 216.489 55.7902 217.394 55.9441 218.254C56.5326 221.468 57.1301 224.682 57.8544 227.869C58.2709 229.725 58.9137 231.527 59.4841 233.347C60.1088 235.32 60.7878 237.267 61.3944 239.241C61.7294 240.318 62.4989 240.888 63.4948 241.124C65.8125 241.685 68.1846 241.64 70.5385 241.404C73.4176 241.115 76.2966 240.725 79.1666 240.381C79.3296 240.363 79.4926 240.445 79.6555 240.436C80.3617 240.399 81.0679 240.345 81.765 240.291C83.5124 240.155 85.2778 240.218 86.9527 239.557C87.0433 239.521 87.17 239.557 87.2787 239.557C88.4647 239.476 89.6688 239.458 90.8458 239.295C92.9915 238.987 95.1282 238.571 97.2648 238.218C100.932 237.611 104.598 237.031 108.256 236.398C111.044 235.909 113.815 235.329 116.594 234.831C120.189 234.189 123.819 233.682 127.386 232.921C130.31 232.296 133.217 231.509 136.069 230.585C137.608 230.087 139.219 229.598 140.469 228.449C141.664 227.353 143.085 226.475 143.429 224.664C144.018 221.604 143.891 218.499 144.063 215.411C144.063 215.258 143.837 215.086 143.674 214.877C142.316 215.819 141.021 216.706 139.717 217.602C138.957 218.128 137.988 218.499 137.481 219.205C136.902 220.011 136.213 220.183 135.408 220.273C133.353 220.509 131.27 220.608 129.233 220.961C126.119 221.505 122.986 221.803 119.863 222.265C118.668 222.446 117.925 221.731 118.142 220.536C118.278 219.802 118.649 219.096 119.03 218.444C119.799 217.114 120.786 215.9 121.42 214.515C122.235 212.732 123.475 211.22 124.389 209.508C124.797 208.739 125.322 208.078 125.403 207.127C125.449 206.593 125.883 206.005 126.3 205.615C128.753 203.361 131.225 201.116 133.76 198.952C135.172 197.739 136.657 196.607 138.214 195.584C139.473 194.76 139.817 193.683 139.455 192.361C138.64 189.428 139.047 186.377 138.468 183.407C137.961 180.799 137.925 178.102 137.436 175.485C136.992 173.14 136.204 170.859 135.58 168.541C135.245 167.282 134.774 166.033 134.638 164.756C134.394 162.384 132.981 160.755 131.415 159.216C130.872 158.682 130.157 158.184 129.278 158.274C128.962 159.922 128.31 161.235 127.232 161.923C126.698 162.267 126.544 162.665 126.39 163.199C126.046 164.412 125.394 165.426 124.19 165.915C121.492 167.02 118.858 166.938 116.323 165.399C115.861 165.119 115.426 164.793 114.974 164.485H114.956ZM113.598 72.1018C110.302 70.8886 107.233 69.7479 104.164 68.6252C100.053 67.1314 95.9611 65.5923 91.8326 64.1708C89.4153 63.3379 86.9346 62.6679 84.463 62.007C83.6301 61.7807 82.6342 62.0251 81.8737 61.6902C80.6967 61.165 79.5197 61.2465 78.3246 61.1831C76.9666 61.1107 75.5995 60.9115 74.2415 60.9296C72.3764 60.9478 70.5204 61.0926 68.6554 61.2103C66.8809 61.319 65.0883 61.3371 63.3409 61.5996C60.7335 61.998 58.3162 63.0754 56.5507 65.0309C54.5046 67.2853 52.3136 69.4944 51.1819 72.4368C50.865 73.2516 50.684 74.1389 50.2494 74.8813C48.9457 77.0813 48.3843 79.5529 47.6329 81.9431C47.1621 83.4369 47.1168 85.0666 46.6823 86.5785C46.1662 88.3983 45.967 90.2181 45.9761 92.0922C45.9761 94.935 45.9851 97.7779 46.3201 100.603C46.6732 103.581 46.981 106.569 47.4156 109.529C47.8321 112.336 48.5111 115.097 49.0362 117.886C50.0321 123.191 51.2362 128.451 52.4947 133.703C53.5811 138.275 54.8486 142.811 56.0618 147.355C56.3696 148.514 56.9128 149.628 57.0939 150.796C57.5013 153.412 58.4972 155.73 60.1359 157.794C60.5433 158.301 60.8059 158.926 61.2043 159.433C62.0825 160.547 62.9788 161.66 63.9385 162.71C64.2915 163.1 64.8167 163.435 65.3237 163.552C67.578 164.087 69.8957 164.123 72.1682 163.869C74.5402 163.607 76.867 162.991 79.221 162.547C79.5922 162.475 79.9724 162.448 80.3527 162.412C82.091 162.231 83.8202 162.013 85.5585 161.886C86.4095 161.823 87.3149 162.104 88.1207 161.914C89.2342 161.642 90.2664 161.914 91.3347 161.914C93.7067 161.932 95.9701 162.384 98.2245 163.009C98.7405 163.154 99.2476 163.38 99.7364 163.616C100.823 164.132 101.9 164.666 102.978 165.2C103.313 165.372 103.657 165.544 103.955 165.78C104.852 166.504 105.639 167.391 106.617 167.971C108.075 168.831 109.641 169.51 111.189 170.18C111.615 170.361 112.176 170.334 112.656 170.279C113.742 170.134 114.286 169.329 113.969 168.278C113.407 166.422 112.574 164.675 111.053 163.407C108.102 160.954 105.087 158.654 101.429 157.233C99.3924 156.436 97.5002 155.314 95.2459 155.169C94.6483 155.132 94.1956 154.725 94.2318 154.082C94.2681 153.449 94.7207 153.068 95.3454 153.114C96.1603 153.168 96.9932 153.258 97.7718 153.485C102.462 154.852 106.635 157.215 110.537 160.13C111.714 161.008 112.828 162.049 114.539 162.185C115.589 162.267 116.712 162.728 117.644 163.525C119.156 164.829 120.967 164.784 122.76 164.168C124.444 163.589 124.896 161.796 123.674 160.637C121.311 158.41 118.704 156.545 115.635 155.395C115.227 155.241 114.838 155.015 114.421 154.897C112.312 154.327 110.193 153.829 108.093 153.231C104.716 152.262 101.312 151.484 97.7628 151.583C97.2739 151.593 96.7125 151.647 96.3142 151.439C95.943 151.248 95.5537 150.76 95.4994 150.352C95.436 149.809 95.9339 149.519 96.4862 149.474C96.7578 149.456 97.0385 149.447 97.3101 149.456C99.6006 149.519 101.873 149.402 104.155 150.044C107.577 151.004 111.117 151.484 114.494 152.652C117.626 153.729 120.641 154.988 123.149 157.206C124.163 158.102 125.132 159.035 126.309 160.13C126.553 159.361 127.015 158.682 126.924 158.075C126.725 156.726 126.291 155.368 125.168 154.463C124.226 153.711 123.24 152.978 122.162 152.444C118.858 150.814 115.372 149.619 111.732 149.003C107.848 148.351 103.928 147.998 99.9718 148.234C99.5463 148.261 99.0936 148.188 98.6772 148.062C98.134 147.899 97.636 147.591 97.7718 146.894C97.8895 146.287 98.3784 146.16 98.9126 146.178C102.742 146.287 106.617 146.07 110.393 146.604C115.752 147.364 120.922 148.994 125.657 151.973C125.775 151.511 125.874 151.149 125.965 150.778C126.218 149.782 125.91 149.121 124.924 148.695C123.466 148.062 122.099 147.211 120.623 146.64C117.654 145.499 114.63 144.567 111.425 144.268C109.252 144.069 107.106 143.48 104.933 143.399C101.665 143.281 98.3512 143.037 95.1734 144.178C95.0286 144.232 94.8475 144.205 94.6845 144.205C93.8788 144.232 93.0639 144.223 92.2672 144.286C91.1898 144.377 90.1215 144.549 89.0441 144.63C88.682 144.657 88.2384 144.603 87.9396 144.413C87.2062 143.942 86.5453 143.363 85.8391 142.856C85.2959 142.466 85.1511 141.941 85.0786 141.299C84.8433 139.234 84.5445 137.179 84.2548 135.124C83.9922 133.196 83.5033 131.258 83.5033 129.33C83.5033 127.356 82.8605 125.5 82.8877 123.499C82.9239 120.964 82.4078 118.411 82.435 115.849C82.435 115.188 82.435 114.527 82.3807 113.875C82.2086 111.757 81.9461 109.638 81.8556 107.51C81.756 105.166 81.8284 102.803 81.765 100.458C81.6926 97.7235 81.5749 94.9803 81.4481 92.2461C81.4029 91.2683 81.2309 90.2905 81.1946 89.3127C81.1675 88.7333 81.2852 88.1539 81.3304 87.6469C83.1231 87.1942 83.3132 87.846 83.5395 88.9596C83.612 89.3308 83.6934 89.7111 83.6934 90.0913C83.6753 92.2189 83.5848 94.3375 83.621 96.4651C83.6663 98.991 83.7659 101.517 83.9288 104.034C84.0465 105.863 83.5395 107.764 84.5083 109.557C87.161 110.462 89.8771 111.313 92.5388 112.309C95.1734 113.296 97.7628 114.418 100.452 115.505C100.615 114.98 100.769 114.518 100.904 114.047C101.592 111.576 101.755 109.004 102.525 106.542C103.403 103.726 103.964 100.811 104.843 97.9951C105.839 94.8083 107.061 91.6938 108.138 88.5341C109.46 84.6592 110.746 80.7661 112.04 76.8821C112.538 75.3792 113.027 73.8763 113.598 72.1199V72.1018ZM146.924 188.513C147.005 188.586 147.078 188.658 147.159 188.73C148.209 187.716 149.45 187.553 150.663 188.142C152.745 189.165 154.619 190.55 155.987 192.433C157.526 194.561 158.929 196.852 159.59 199.405C159.97 200.88 159.744 202.519 159.708 204.085C159.708 204.411 159.427 204.864 159.146 205.027C158.368 205.489 158.404 206.186 158.44 206.892C158.476 207.625 158.033 208.332 158.558 209.101C159.916 211.093 161.084 213.22 162.523 215.149C164.253 217.467 166.136 219.676 168.046 221.849C169.857 223.895 171.541 226.04 173.732 227.77C175.533 229.191 177.009 231.002 178.784 232.459C180.929 234.225 183.22 235.818 185.474 237.448C186.715 238.344 187.982 239.195 189.286 239.983C191.993 241.613 194.736 243.179 197.47 244.772C200.512 246.547 203.6 248.195 207.058 249.046C208.063 249.29 209.113 249.498 210.019 249.96C212.472 251.2 215.17 251.454 217.787 251.653C221.254 251.925 224.803 252.287 228.234 251.119C228.388 251.065 228.56 251.083 228.723 251.083C231.584 250.965 234.346 250.386 237.035 249.399C238.945 248.702 240.393 247.353 241.833 246.031C242.512 245.406 243.055 244.618 243.553 243.84C244.766 241.957 246.034 240.092 247.066 238.109C247.962 236.38 248.46 234.442 249.329 232.695C250.262 230.812 251.149 228.956 251.104 226.792C251.104 226.593 251.294 226.393 251.339 226.185C251.475 225.66 251.602 225.135 251.692 224.61C251.792 224.021 251.846 223.415 251.919 222.826C252.172 220.88 252.435 218.933 252.679 216.987C252.779 216.226 252.851 215.475 252.915 214.714C253.059 212.804 253.213 210.894 253.322 208.974C253.367 208.223 253.25 207.453 253.286 206.702C253.376 204.918 253.575 203.144 253.612 201.36C253.648 199.912 253.44 198.472 253.657 197.024C253.711 196.67 253.603 196.29 253.548 195.774C252.48 195.774 251.493 195.828 250.515 195.765C247.908 195.593 245.31 195.294 242.711 195.177C238.827 194.987 234.934 194.923 231.05 194.778C229.755 194.733 228.461 194.606 227.175 194.498C226.089 194.407 225.002 194.289 223.916 194.181C222.015 194 220.104 193.828 218.203 193.638C216.926 193.511 215.65 193.348 214.192 193.185C214.346 196.535 214.482 199.685 214.636 202.999C217.307 203.922 220.213 204.891 223.092 205.923C224.685 206.494 226.27 207.136 227.818 207.815C228.479 208.105 228.587 208.857 228.198 209.499C227.863 210.061 227.438 209.952 226.922 209.744C224.993 208.974 223.056 208.205 221.091 207.526C217.633 206.331 214.156 205.172 210.67 204.049C207.502 203.026 204.288 202.13 201.137 201.043C198.357 200.075 195.641 198.925 192.907 197.838C192.246 197.576 191.622 197.214 190.943 197.051C190.264 196.888 189.757 196.58 189.313 196.037C188.417 194.932 187.412 193.918 186.542 192.796C186.235 192.397 186.072 191.809 186.054 191.293C185.999 189.754 186.072 188.214 186.063 186.675C186.063 184.928 186.162 183.181 185.673 181.442C184.614 177.685 182.468 174.489 180.44 171.239C179.064 169.039 176.756 167.952 174.365 167.264C173.369 166.975 172.057 166.938 171.151 167.355C169.44 168.143 168.327 169.682 167.729 171.51C167.711 171.583 167.82 171.692 167.783 171.619C168.897 171.827 169.938 171.9 170.871 172.244C171.83 172.597 172.681 173.222 173.578 173.738C175.723 174.969 177.29 176.753 178.548 178.862C180.531 182.167 181.255 185.906 182.17 189.563C182.324 190.188 182.224 190.876 182.224 191.537C182.224 192.216 181.925 192.678 181.002 192.841C180.739 192.361 180.359 191.89 180.214 191.356C179.716 189.464 179.191 187.563 178.874 185.634C178.177 181.388 175.886 178.138 172.636 175.53C170.002 173.421 165.828 173.312 163.094 176.354C163.61 176.68 164.099 177.006 164.615 177.296C166.19 178.183 167.711 179.134 168.888 180.564C169.893 181.795 171.006 182.936 172.066 184.122C172.247 184.321 172.428 184.548 172.537 184.792C173.514 186.992 174.565 189.165 175.398 191.419C175.941 192.895 176.149 194.498 176.511 196.037C176.665 196.707 176.339 197.141 175.732 197.259C175.153 197.377 174.655 197.15 174.492 196.489C174.402 196.118 174.302 195.747 174.202 195.376C173.677 193.493 173.197 191.591 172.618 189.726C172.392 189.002 171.984 188.323 171.577 187.68C170.925 186.666 170.228 185.688 169.513 184.729C169.024 184.068 168.517 183.416 167.937 182.828C167.249 182.121 166.516 181.451 165.737 180.854C164.66 180.021 163.592 179.143 162.397 178.518C160.441 177.486 158.929 177.866 157.336 179.441C156.756 180.021 156.095 180.519 155.461 181.035C155.09 181.343 154.71 181.623 154.375 181.877C156.05 182.438 157.68 182.9 159.246 183.525C160.296 183.941 161.41 184.421 162.243 185.154C164.343 187.001 166.344 188.984 167.639 191.528C168.109 192.451 168.535 193.402 168.978 194.344C169.839 196.145 170.092 198.11 170.454 200.047C170.554 200.564 170.481 201.179 169.893 201.224C169.513 201.252 168.924 200.899 168.734 200.545C168.318 199.785 168.055 198.934 167.82 198.101C167.122 195.629 166.199 193.312 164.769 191.103C162.514 187.617 159.336 185.652 155.525 184.493C154.149 184.077 152.7 184.041 151.342 184.593C149.676 185.272 148.499 186.63 147.241 187.843C147.069 188.006 147.023 188.296 146.924 188.522V188.513ZM176.991 105.899C176.258 110.29 175.235 114.346 176.556 118.511C176.638 118.764 176.593 119.063 176.638 119.325C176.873 120.665 176.964 122.06 177.407 123.318C178.485 126.387 180.133 129.049 182.658 131.276C184.116 132.562 185.655 133.657 187.321 134.508C189.793 135.767 192.445 136.527 195.306 136.672C197.597 136.79 199.761 136.473 201.852 135.658C205.628 134.191 208.832 131.828 211.829 129.149C212.436 128.605 213.079 128.089 213.703 127.555C214.654 126.74 215.46 125.817 215.94 124.441C214.998 124.531 214.174 124.54 213.386 124.694C211.784 125.011 210.181 125.382 208.597 125.79C206.433 126.351 204.279 126.985 202.115 127.564C201.273 127.791 200.431 128.035 199.562 128.144C198.62 128.261 198.113 127.664 198.339 126.713C198.52 125.971 198.792 125.247 199.109 124.558C200.422 121.661 201.771 118.782 203.093 115.894C203.228 115.604 203.391 115.251 203.337 114.971C203.219 114.364 203.228 113.839 203.853 113.585C204.478 113.332 204.912 113.622 205.419 114.092C207.031 115.595 209.023 116.157 211.186 115.749C212.354 115.523 213.26 114.808 213.486 113.486C213.577 112.952 213.794 112.436 213.903 111.901C213.975 111.539 214.056 111.132 213.966 110.788C213.486 108.959 211.232 107.972 209.521 108.814C208.298 109.412 207.61 109.104 207.493 107.782C207.239 104.948 207.049 102.105 206.859 99.2626C206.804 98.5112 206.859 97.7507 206.859 96.9449C201.599 96.0758 196.574 96.6462 191.64 97.2346C190.01 99.8692 189.195 102.513 189.114 105.283C189.105 105.609 189.023 105.935 189.032 106.261C189.032 106.732 188.987 107.23 189.114 107.664C189.793 110.027 191.386 111.594 193.541 112.68C194.609 113.223 194.872 114.011 194.129 114.925C192.925 116.401 192.328 118.167 191.495 119.823C191.35 120.113 190.961 120.511 190.734 120.475C190.381 120.43 189.929 120.14 189.757 119.823C188.933 118.302 188.263 116.691 187.384 115.206C186.859 114.328 186.153 113.477 185.347 112.861C182.849 110.933 180.44 108.923 178.195 106.705C177.933 106.451 177.588 106.288 177.009 105.899H176.991ZM87.2334 141.29C87.8128 141.643 88.2112 141.932 88.6458 142.15C88.9808 142.313 89.361 142.512 89.705 142.485C91.0088 142.367 92.3034 142.177 93.5981 142.005C95.273 141.778 96.9479 141.38 98.6229 141.362C101.964 141.326 105.304 141.471 108.636 141.606C109.723 141.652 110.8 141.869 111.868 142.095C114.53 142.648 117.174 143.236 119.935 143.834C120.279 138.302 123.403 134.137 126.472 129.864C126.182 129.737 125.847 129.583 125.512 129.429C121.882 127.763 118.242 126.116 114.621 124.432C112.493 123.445 110.411 122.377 108.265 121.417C106.572 120.665 104.806 120.086 103.122 119.325C100.832 118.293 98.5866 117.162 96.3142 116.084C95.3364 115.623 94.3586 115.125 93.3446 114.771C90.6104 113.83 87.8581 112.961 85.1058 112.064C84.8614 111.983 84.6079 111.938 84.2004 111.838C84.5535 116.863 84.7708 121.77 85.2688 126.659C85.7758 131.548 86.5634 136.401 87.2243 141.28L87.2334 141.29ZM124.625 213.646C125.919 215.484 127.169 217.267 128.382 218.997C130.048 218.788 131.614 218.589 133.18 218.408C134.792 218.227 136.232 217.693 137.3 216.407C136.53 216.127 135.752 215.882 135.018 215.556C133.878 215.049 133.579 214.325 134.068 213.184C134.258 212.75 134.638 212.397 134.946 212.016C136.041 210.685 137.137 209.355 138.241 208.033C137.562 208.006 137.055 208.178 136.576 208.395C134.991 209.101 133.425 209.871 131.813 210.541C130.591 211.048 129.803 210.649 129.441 209.364C129.315 208.92 129.342 208.377 129.45 207.924C129.65 207.146 129.659 206.403 129.586 205.471C128.907 206.113 128.228 206.512 127.911 207.109C126.771 209.228 125.747 211.41 124.643 213.637L124.625 213.646ZM174.519 57.281C174.003 56.3123 173.632 55.4613 173.134 54.6827C171.106 51.5229 168.046 49.7665 164.569 48.6982C163.021 48.2184 161.419 47.9739 159.744 48.2908C158.359 48.5534 156.892 48.4266 155.516 48.7163C153.415 49.16 151.369 49.8209 149.296 50.3912C152.519 50.4365 155.679 50.2554 158.847 50.174C160.088 50.1377 161.401 50.0563 162.55 50.4184C164.615 51.0793 166.688 51.867 168.553 52.9534C170.617 54.1575 172.455 55.76 174.528 57.281H174.519ZM138.486 48.6258C138.576 48.5262 138.667 48.4176 138.758 48.318C136.621 45.5476 134.24 43.1755 130.157 43.0669C133.063 45.0043 135.779 46.8151 138.486 48.6167V48.6258Z" fill="#121213"/>
<path d="M203.02 103.291C203.138 104.541 201.888 105.192 201.019 105.247C200.376 105.283 199.752 104.622 199.996 104.07C200.322 103.355 200.775 102.585 201.39 102.132C202.25 101.508 203.047 102.132 203.029 103.291H203.02Z" fill="#121213"/>
</g>
<path d="M25.5508 245.342C24.3407 244.223 23.1255 243.109 21.8647 242.05C20.761 241.119 19.5154 239.701 18.0926 239.301C17.7787 239.21 17.5914 239.549 17.7028 239.812C18.2243 241.012 19.5103 241.893 20.4217 242.805C21.4698 243.853 22.5331 244.876 23.5812 245.924C25.6014 247.944 27.6014 249.974 29.5457 252.06C33.4798 256.278 37.2519 260.638 40.8012 265.179C41.8189 266.48 42.8164 267.802 43.8088 269.118C44.7606 270.384 45.6315 271.923 46.8467 272.956C47.6112 273.609 48.6239 272.982 48.4821 272.02C48.4264 271.62 48.4365 271.245 48.4619 270.845C48.4872 270.394 47.9353 270.197 47.6163 270.415C47.1505 269.706 46.6138 269.037 46.1176 268.369C45.2416 267.179 44.3404 266.015 43.429 264.86C41.5911 262.536 39.6974 260.258 37.7531 258.03C33.9 253.61 29.8494 249.336 25.5457 245.347L25.5508 245.342Z" fill="white"/>
<path d="M20.164 232.523C19.9362 232.366 19.6982 232.665 19.8045 232.882C20.5083 234.335 21.6172 235.525 22.6399 236.771C23.7032 238.067 24.807 239.333 25.9007 240.609C28.1184 243.201 30.331 245.799 32.5537 248.386C36.9638 253.515 41.4093 258.619 45.9308 263.646C47.1611 265.019 48.3864 266.396 49.637 267.758C50.2801 268.451 50.9383 269.14 51.6066 269.819C52.2497 270.462 52.8522 271.105 53.718 271.413C54.1231 271.555 54.4826 271.115 54.3965 270.735C54.037 269.282 52.6092 268.026 51.6573 266.922C50.5636 265.657 49.4193 264.421 48.3054 263.176C46.027 260.644 43.7384 258.112 41.4549 255.586C36.9182 250.573 32.3664 245.586 27.8449 240.558C26.6146 239.186 25.3994 237.799 24.1589 236.437C22.9083 235.065 21.7134 233.566 20.1691 232.518L20.164 232.523Z" fill="white"/>
<path d="M21.2669 251.437C21.0999 251.391 20.9682 251.543 21.0037 251.7C21.2315 252.819 22.2695 253.736 22.9783 254.576C23.7682 255.508 24.5631 256.434 25.358 257.361C27.0542 259.341 28.7706 261.3 30.4516 263.285C32.0972 265.234 33.7427 267.174 35.3579 269.143C36.168 270.125 36.9781 271.108 37.8034 272.075C38.5427 272.946 39.4389 274.176 40.4971 274.657C40.8009 274.799 41.1148 274.566 41.054 274.232C40.8363 273.092 39.854 271.948 39.1654 271.037C38.4161 270.044 37.6515 269.067 36.8617 268.105C35.2111 266.09 33.5503 264.085 31.844 262.126C30.1681 260.207 28.4871 258.293 26.7403 256.445C25.8289 255.483 24.9074 254.521 23.9707 253.584C23.191 252.804 22.3707 251.731 21.2669 251.437Z" fill="white"/>
<g clip-path="url(#clip1_4354_19575)">
<path d="M242.771 42.7172C241.367 41.9787 239.961 41.2462 238.526 40.5767C237.268 39.9858 235.758 38.9785 234.336 38.9611C234.021 38.9546 233.932 39.3164 234.101 39.5334C234.884 40.5186 236.299 41.0171 237.373 41.6371C238.608 42.3501 239.85 43.0358 241.085 43.7488C243.466 45.1231 245.83 46.5118 248.156 47.9662C252.862 50.906 257.453 54.0179 261.882 57.3546C263.152 58.3104 264.408 59.2901 265.658 60.2663C266.857 61.2056 268.05 62.4191 269.436 63.0763C270.309 63.4929 271.094 62.6574 270.723 61.7987C270.572 61.4408 270.488 61.0901 270.412 60.7121C270.323 60.2871 269.761 60.241 269.519 60.5227C268.909 59.98 268.244 59.4926 267.617 58.995C266.506 58.1075 265.379 57.2497 264.245 56.4038C261.958 54.7018 259.631 53.056 257.269 51.4699C252.588 48.3218 247.76 45.3592 242.767 42.7232L242.771 42.7172Z" fill="white"/>
<path d="M235.656 25.6674C235.596 25.633 235.526 25.7121 235.585 25.762C238.297 28.2981 241.435 30.4277 244.416 32.6344C247.442 34.8746 250.468 37.1147 253.538 39.2928C259.657 43.629 265.692 48.1239 271.97 52.2412C273.713 53.3829 275.503 54.4563 277.366 55.4045C279.049 56.2648 281.048 57.4033 282.986 57.4085C283.44 57.408 283.73 56.7957 283.372 56.478C282.084 55.3205 280.31 54.6862 278.795 53.8669C277.192 53.0053 275.616 52.0712 274.078 51.0963C270.965 49.1317 267.943 47.0368 264.91 44.9597C258.766 40.7361 252.638 36.4981 246.411 32.4023C244.662 31.2572 242.912 30.1275 241.156 28.9944C239.356 27.8277 237.585 26.6381 235.662 25.6709L235.656 25.6674Z" fill="#0FF1CF"/>
<path d="M241.782 23.5569C241.381 23.3569 241.038 23.827 241.314 24.1615C242.372 25.4564 243.808 26.4685 245.093 27.5209C246.376 28.5639 247.679 29.5865 248.992 30.5913C251.68 32.6599 254.444 34.6375 257.239 36.5613C262.816 40.4022 268.618 43.9663 274.549 47.2234C277.847 49.0325 281.195 50.8938 284.747 52.1409C285.509 52.4058 285.879 51.283 285.263 50.888C282.468 49.0752 279.451 47.6041 276.538 46.0095C273.613 44.4081 270.705 42.7614 267.842 41.0526C262.115 37.6349 256.553 33.9462 251.078 30.1332C249.517 29.0487 247.973 27.9345 246.432 26.8143C244.918 25.7172 243.441 24.4033 241.776 23.5534L241.782 23.5569Z" fill="white"/>
<path d="M244.223 18.7776C243.728 18.5319 243.202 18.4108 242.711 18.1591C242.597 18.0937 242.442 18.2664 242.557 18.3566C243.17 18.8379 243.668 19.4356 244.313 19.9033C245.061 20.439 245.831 20.9389 246.583 21.4686C248.046 22.4885 249.534 23.4666 251.014 24.4567C253.928 26.4093 256.848 28.3499 259.775 30.294C265.663 34.2029 271.58 38.0641 277.54 41.863C279.175 42.9025 280.819 43.9394 282.458 44.9729C284.066 45.9892 285.852 47.3062 287.726 47.752C288.253 47.8731 288.517 47.2779 288.218 46.8989C287.178 45.5741 285.513 44.6131 284.127 43.6935C282.691 42.737 281.234 41.8162 279.781 40.8741C276.843 38.9633 273.878 37.1002 270.917 35.2158C265.008 31.4538 259.047 27.7659 253.079 24.1053C251.426 23.0957 249.775 22.0706 248.119 21.067C247.241 20.5359 246.358 20.0261 245.476 19.5009C245.056 19.2504 244.641 19.0034 244.21 18.7861L244.223 18.7776Z" fill="#0FF1CF"/>
<path d="M259.406 12.7325C257.933 11.8262 256.424 11.0504 255.047 9.97708C254.944 9.89374 254.794 10.0298 254.896 10.1285C255.957 11.115 257.038 12.1366 258.192 13.0176C259.265 13.8443 260.455 14.5392 261.583 15.2859C264.05 16.9092 266.532 18.5087 269.029 20.0937C274.02 23.2698 279.042 26.3921 284.092 29.4667C285.471 30.3025 286.85 31.1383 288.239 31.9563C289.595 32.7629 291.034 33.769 292.635 33.9454C293.055 33.9891 293.357 33.4239 293.131 33.0863C292.369 31.9541 291.117 31.2556 289.984 30.5456C288.759 29.7746 287.514 29.0239 286.265 28.2793C283.778 26.7874 281.28 25.3135 278.773 23.842C273.767 20.912 268.741 18.0025 263.676 15.1739C262.246 14.372 260.802 13.594 259.406 12.7325Z" fill="white"/>
<path d="M269.882 11.7965C267.106 10.2657 264.277 8.81508 261.45 7.37384C261.408 7.34973 261.374 7.40939 261.416 7.4335C270.58 13.4803 279.71 19.5867 288.827 25.7017C290.076 26.542 291.325 27.3824 292.591 28.1929C293.827 28.9862 295.233 30.1477 296.715 30.391C297.228 30.4804 297.725 29.964 297.425 29.4645C296.77 28.3542 295.504 27.5838 294.477 26.8556C293.382 26.08 292.273 25.3128 291.148 24.5756C288.811 23.0434 286.477 21.5052 284.096 20.0506C279.416 17.1895 274.686 14.4427 269.882 11.7965Z" fill="#0FF1CF"/>
<path d="M240.308 49.4484C240.141 49.4477 240.057 49.6216 240.129 49.7587C240.619 50.7418 241.812 51.3349 242.68 51.9395C243.646 52.6086 244.615 53.2717 245.585 53.9348C247.654 55.3521 249.737 56.7456 251.793 58.1715C253.808 59.5732 255.82 60.9655 257.811 62.3936C258.809 63.1047 259.806 63.8158 260.814 64.509C261.718 65.1342 262.857 66.0544 263.96 66.2379C264.277 66.294 264.511 65.9994 264.372 65.704C263.886 64.6995 262.688 63.8808 261.821 63.2053C260.878 62.4697 259.924 61.752 258.95 61.0547C256.915 59.593 254.872 58.1433 252.798 56.7473C250.763 55.3814 248.725 54.0214 246.641 52.739C245.555 52.0719 244.459 51.4074 243.355 50.7702C242.436 50.2397 241.407 49.4465 240.308 49.4484Z" fill="white"/>
</g>
<defs>
<clipPath id="clip0_4354_19575">
<rect width="212.316" height="214.634" fill="white" transform="translate(43.749 39.4904)"/>
</clipPath>
<clipPath id="clip1_4354_19575">
<rect width="50.4052" height="57.1769" fill="white" transform="translate(225 43.9994) rotate(-60)"/>
</clipPath>
</defs>
</svg>
