<svg width="300" height="315" viewBox="0 0 300 315" fill="none" xmlns="http://www.w3.org/2000/svg">
<path d="M254.959 80.8857C245.286 62.3764 219.438 46.0907 198.811 43.6492C180.744 41.5106 160.014 46.0373 148.936 61.2949C144.862 66.9057 142.36 73.6001 137.916 78.915C122.634 97.1935 94.2628 90.8951 72.3821 99.3249C57.1544 105.191 45.205 118.631 38.6785 133.886C32.152 149.141 30.6215 166.068 31.7626 182.405C32.6639 195.305 35.3475 208.437 42.6571 218.766C57.9791 240.417 89.563 243.588 115.098 234.928C123.051 232.231 130.8 228.581 139.031 227.243C147.262 225.905 156.405 227.308 161.939 233.405C166.353 238.269 167.854 245.367 172.239 250.259C178.205 256.917 188.559 258.045 197.176 255.057C205.792 252.068 212.954 245.665 219.257 238.865C245.668 210.377 284.161 136.763 254.959 80.8857Z" fill="#031542"/>
<path d="M25.5508 245.342C24.3407 244.223 23.1255 243.109 21.8647 242.05C20.761 241.119 19.5154 239.701 18.0926 239.301C17.7787 239.21 17.5914 239.549 17.7028 239.812C18.2243 241.012 19.5103 241.893 20.4217 242.805C21.4698 243.853 22.5331 244.876 23.5812 245.924C25.6014 247.944 27.6014 249.974 29.5457 252.06C33.4798 256.278 37.2519 260.638 40.8012 265.179C41.8189 266.48 42.8164 267.802 43.8088 269.118C44.7606 270.384 45.6315 271.923 46.8467 272.956C47.6112 273.609 48.6239 272.982 48.4821 272.02C48.4264 271.62 48.4365 271.245 48.4619 270.845C48.4872 270.394 47.9353 270.197 47.6163 270.415C47.1505 269.706 46.6138 269.037 46.1176 268.369C45.2416 267.179 44.3404 266.015 43.429 264.86C41.5911 262.536 39.6974 260.258 37.7531 258.03C33.9 253.61 29.8494 249.336 25.5457 245.347L25.5508 245.342Z" fill="white"/>
<path d="M20.164 232.523C19.9362 232.366 19.6982 232.665 19.8045 232.882C20.5083 234.335 21.6172 235.525 22.6399 236.771C23.7032 238.067 24.807 239.333 25.9007 240.609C28.1184 243.201 30.331 245.799 32.5537 248.386C36.9638 253.515 41.4093 258.619 45.9308 263.646C47.1611 265.019 48.3864 266.396 49.637 267.758C50.2801 268.451 50.9383 269.14 51.6066 269.819C52.2497 270.462 52.8522 271.105 53.718 271.413C54.1231 271.555 54.4826 271.115 54.3965 270.735C54.037 269.282 52.6092 268.026 51.6573 266.922C50.5636 265.657 49.4193 264.421 48.3054 263.176C46.027 260.644 43.7384 258.112 41.4549 255.586C36.9182 250.573 32.3664 245.586 27.8449 240.558C26.6146 239.186 25.3994 237.799 24.1589 236.437C22.9083 235.065 21.7134 233.566 20.1691 232.518L20.164 232.523Z" fill="white"/>
<path d="M21.2669 251.437C21.0999 251.391 20.9682 251.543 21.0037 251.7C21.2315 252.819 22.2695 253.736 22.9783 254.576C23.7682 255.508 24.5631 256.434 25.358 257.361C27.0542 259.341 28.7706 261.3 30.4516 263.285C32.0972 265.234 33.7427 267.174 35.3579 269.143C36.168 270.125 36.9781 271.108 37.8034 272.075C38.5427 272.946 39.4389 274.176 40.4971 274.657C40.8009 274.799 41.1148 274.566 41.054 274.232C40.8363 273.092 39.854 271.948 39.1654 271.037C38.4161 270.044 37.6515 269.067 36.8617 268.105C35.2111 266.09 33.5503 264.085 31.844 262.126C30.1681 260.207 28.4871 258.293 26.7403 256.445C25.8289 255.483 24.9074 254.521 23.9707 253.584C23.191 252.804 22.3707 251.731 21.2669 251.437Z" fill="white"/>
<g clip-path="url(#clip0_4354_19632)">
<path d="M242.771 42.7172C241.367 41.9787 239.961 41.2462 238.526 40.5767C237.268 39.9858 235.758 38.9785 234.336 38.9611C234.021 38.9546 233.932 39.3164 234.101 39.5334C234.884 40.5186 236.299 41.0171 237.373 41.6371C238.608 42.3501 239.85 43.0358 241.085 43.7488C243.466 45.1231 245.83 46.5118 248.156 47.9662C252.862 50.906 257.453 54.0179 261.882 57.3546C263.152 58.3104 264.408 59.2901 265.658 60.2663C266.857 61.2056 268.05 62.4191 269.436 63.0763C270.309 63.4929 271.094 62.6574 270.723 61.7987C270.572 61.4408 270.488 61.0901 270.412 60.7121C270.323 60.2871 269.761 60.241 269.519 60.5227C268.909 59.98 268.244 59.4926 267.617 58.995C266.506 58.1075 265.379 57.2497 264.245 56.4038C261.958 54.7018 259.631 53.056 257.269 51.4699C252.588 48.3218 247.76 45.3592 242.767 42.7232L242.771 42.7172Z" fill="#3D50DF"/>
<path d="M235.656 25.6674C235.596 25.633 235.526 25.7121 235.585 25.762C238.297 28.2981 241.435 30.4277 244.416 32.6344C247.442 34.8746 250.468 37.1147 253.538 39.2928C259.657 43.629 265.692 48.1239 271.97 52.2412C273.713 53.3829 275.503 54.4563 277.366 55.4045C279.049 56.2648 281.048 57.4033 282.986 57.4085C283.44 57.408 283.73 56.7957 283.372 56.478C282.084 55.3205 280.31 54.6862 278.795 53.8669C277.192 53.0053 275.616 52.0712 274.078 51.0963C270.965 49.1317 267.943 47.0368 264.91 44.9597C258.766 40.7361 252.638 36.4981 246.411 32.4023C244.662 31.2572 242.912 30.1275 241.156 28.9944C239.356 27.8277 237.585 26.6381 235.662 25.6709L235.656 25.6674Z" fill="#0FF1CF"/>
<path d="M241.782 23.5569C241.381 23.3569 241.038 23.827 241.314 24.1615C242.372 25.4564 243.808 26.4685 245.093 27.5209C246.376 28.5639 247.679 29.5865 248.992 30.5913C251.68 32.6599 254.444 34.6375 257.239 36.5613C262.816 40.4022 268.618 43.9663 274.549 47.2234C277.847 49.0325 281.195 50.8938 284.747 52.1409C285.509 52.4058 285.879 51.283 285.263 50.888C282.468 49.0752 279.451 47.6041 276.538 46.0095C273.613 44.4081 270.705 42.7614 267.842 41.0526C262.115 37.6349 256.553 33.9462 251.078 30.1332C249.517 29.0487 247.973 27.9345 246.432 26.8143C244.918 25.7172 243.441 24.4033 241.776 23.5534L241.782 23.5569Z" fill="#3D50DF"/>
<path d="M244.223 18.7776C243.728 18.5319 243.202 18.4108 242.711 18.1591C242.597 18.0937 242.442 18.2664 242.557 18.3566C243.17 18.8379 243.668 19.4356 244.313 19.9033C245.061 20.439 245.831 20.9389 246.583 21.4686C248.046 22.4885 249.534 23.4666 251.014 24.4567C253.928 26.4093 256.848 28.3499 259.775 30.294C265.663 34.2029 271.58 38.0641 277.54 41.863C279.175 42.9025 280.819 43.9394 282.458 44.9729C284.066 45.9892 285.852 47.3062 287.726 47.752C288.253 47.8731 288.517 47.2779 288.218 46.8989C287.178 45.5741 285.513 44.6131 284.127 43.6935C282.691 42.737 281.234 41.8162 279.781 40.8741C276.843 38.9633 273.878 37.1002 270.917 35.2158C265.008 31.4538 259.047 27.7659 253.079 24.1053C251.426 23.0957 249.775 22.0706 248.119 21.067C247.241 20.5359 246.358 20.0261 245.476 19.5009C245.056 19.2504 244.641 19.0034 244.21 18.7861L244.223 18.7776Z" fill="#0FF1CF"/>
<path d="M259.406 12.7325C257.933 11.8262 256.424 11.0504 255.047 9.97708C254.944 9.89374 254.794 10.0298 254.896 10.1285C255.957 11.115 257.038 12.1366 258.192 13.0176C259.265 13.8443 260.455 14.5392 261.583 15.2859C264.05 16.9092 266.532 18.5087 269.029 20.0937C274.02 23.2698 279.042 26.3921 284.092 29.4667C285.471 30.3025 286.85 31.1383 288.239 31.9563C289.595 32.7629 291.034 33.769 292.635 33.9454C293.055 33.9891 293.357 33.4239 293.131 33.0863C292.369 31.9541 291.117 31.2556 289.984 30.5456C288.759 29.7746 287.514 29.0239 286.265 28.2793C283.778 26.7874 281.28 25.3135 278.773 23.842C273.767 20.912 268.741 18.0025 263.676 15.1739C262.246 14.372 260.802 13.594 259.406 12.7325Z" fill="#6941C6"/>
<path d="M269.882 11.7965C267.106 10.2657 264.277 8.81508 261.45 7.37384C261.408 7.34973 261.374 7.40939 261.416 7.4335C270.58 13.4803 279.71 19.5867 288.827 25.7017C290.076 26.542 291.325 27.3824 292.591 28.1929C293.827 28.9862 295.233 30.1477 296.715 30.391C297.228 30.4804 297.725 29.964 297.425 29.4645C296.77 28.3542 295.504 27.5838 294.477 26.8556C293.382 26.08 292.273 25.3128 291.148 24.5756C288.811 23.0434 286.477 21.5052 284.096 20.0506C279.416 17.1895 274.686 14.4427 269.882 11.7965Z" fill="#0FF1CF"/>
<path d="M240.308 49.4484C240.141 49.4477 240.057 49.6216 240.129 49.7587C240.619 50.7418 241.812 51.3349 242.68 51.9395C243.646 52.6086 244.615 53.2717 245.585 53.9348C247.654 55.3521 249.737 56.7456 251.793 58.1715C253.808 59.5732 255.82 60.9655 257.811 62.3936C258.809 63.1047 259.806 63.8158 260.814 64.509C261.718 65.1342 262.857 66.0544 263.96 66.2379C264.277 66.294 264.511 65.9994 264.372 65.704C263.886 64.6995 262.688 63.8808 261.821 63.2053C260.878 62.4697 259.924 61.752 258.95 61.0547C256.915 59.593 254.872 58.1433 252.798 56.7473C250.763 55.3814 248.725 54.0214 246.641 52.739C245.555 52.0719 244.459 51.4074 243.355 50.7702C242.436 50.2397 241.407 49.4465 240.308 49.4484Z" fill="white"/>
</g>
<path fill-rule="evenodd" clip-rule="evenodd" d="M47.4939 215.842C9.3625 191.806 55.0306 159.956 43.8748 121.872C32.7191 83.7869 5.69621 27.0017 112.304 47.2357C220.32 67.737 288.828 94.1357 272.638 175.906C256.448 257.676 85.6254 239.878 47.4939 215.842Z" fill="#64FCD9"/>
<path d="M269.679 232.942C269.166 234.068 268.631 235.184 268.14 236.319C267.358 238.154 267.401 238.411 268.807 239.777C270.28 241.2 271.815 242.572 273.288 243.995C273.864 244.548 274.414 245.155 274.859 245.819C275.65 247.011 275.167 248.335 273.749 248.402C272.408 248.477 270.981 248.183 269.685 247.778C268.362 247.373 267.144 246.62 265.873 246.041C264.167 245.277 263.866 245.352 262.822 246.882C261.348 249.035 259.913 251.218 258.461 253.381C258.257 253.683 258.058 254.002 257.791 254.237C257.168 254.784 256.502 255.193 255.602 254.797C254.68 254.39 254.546 253.63 254.675 252.791C254.936 251.076 255.224 249.359 255.55 247.647C256.457 242.874 256.452 242.885 252.289 240.369C250.216 239.121 248.189 237.802 246.152 236.504C245.84 236.31 245.549 236.071 245.305 235.815C244.728 235.209 244.235 234.562 244.649 233.682C245.014 232.911 246.158 232.39 247.106 232.624C249.007 233.107 250.9 233.666 252.797 234.187C253.427 234.355 254.068 234.502 254.704 234.686C256.504 235.215 257.943 234.749 259.272 233.415C261.267 231.407 263.346 229.477 265.455 227.601C266.533 226.64 267.727 225.746 268.983 225.038C269.508 224.736 270.427 224.798 271.038 225.037C271.838 225.361 272.206 226.163 271.906 227.056C271.25 229.053 270.572 231.04 269.893 233.027C269.816 232.992 269.75 232.962 269.667 232.937L269.679 232.942ZM269.408 244.841C269.48 244.742 269.541 244.637 269.613 244.538C268.299 243.175 266.86 241.912 265.694 240.431C264.499 238.896 264.434 237.165 265.374 235.363C266.33 233.529 267.114 231.603 268.159 229.308C267.36 229.92 266.891 230.247 266.478 230.627C264.502 232.445 262.527 234.264 260.573 236.092C259.127 237.453 257.591 238.363 255.448 237.651C254.569 237.356 253.573 237.404 252.75 237.306C254.345 238.402 256.019 239.56 257.686 240.703C258.634 241.345 259.027 242.211 258.921 243.323C258.728 245.123 258.551 246.916 258.376 248.618C259.231 247.239 260.109 245.752 261.048 244.305C261.787 243.151 263.76 242.334 264.858 242.794C266.401 243.418 267.901 244.167 269.425 244.862L269.408 244.841Z" fill="#121213"/>
<path d="M69.2137 288.316C69.4339 289.534 69.6303 290.755 69.8744 291.968C70.2771 293.921 70.4589 294.108 72.3923 294.429C74.4136 294.759 76.4578 295.011 78.4791 295.341C79.2668 295.467 80.0652 295.652 80.809 295.945C82.1383 296.473 82.4959 297.836 81.369 298.699C80.3095 299.526 78.9696 300.098 77.6735 300.503C76.3557 300.925 74.926 301 73.5522 301.249C71.7147 301.593 71.5099 301.826 71.5244 303.678C71.5399 306.287 71.6054 308.899 71.6449 311.503C71.6493 311.869 71.6678 312.244 71.5821 312.589C71.3824 313.394 71.0678 314.11 70.1023 314.297C69.1129 314.488 68.5696 313.939 68.1972 313.177C67.4341 311.619 66.6928 310.044 65.9851 308.451C64.01 304.013 64.0121 304.024 59.1572 304.329C56.7427 304.485 54.3252 304.557 51.912 304.652C51.5451 304.669 51.1696 304.639 50.8236 304.568C50.0034 304.399 49.2302 304.148 49.069 303.189C48.9291 302.348 49.5725 301.267 50.4842 300.919C52.3215 300.233 54.1957 299.613 56.0514 298.96C56.6653 298.739 57.2749 298.495 57.9029 298.283C59.6836 297.693 60.6008 296.489 60.9316 294.635C61.4267 291.849 62.0357 289.078 62.6989 286.334C63.0371 284.931 63.5089 283.515 64.1377 282.217C64.3965 281.67 65.1869 281.198 65.8256 281.046C66.6673 280.857 67.4269 281.305 67.6893 282.21C68.2883 284.225 68.8634 286.244 69.4385 288.264C69.3549 288.279 69.2832 288.292 69.2017 288.319L69.2137 288.316ZM75.7726 298.247C75.7751 298.125 75.7657 298.005 75.7682 297.882C73.9121 297.51 72.0099 297.293 70.2074 296.74C68.3507 296.161 67.3104 294.775 67.0565 292.758C66.7963 290.706 66.3428 288.677 65.8938 286.196C65.5861 287.154 65.3871 287.691 65.264 288.238C64.6771 290.858 64.0902 293.478 63.5272 296.094C63.1137 298.036 62.3711 299.659 60.2039 300.296C59.3131 300.554 58.5223 301.161 57.7907 301.55C59.7261 301.541 61.7613 301.539 63.7824 301.528C64.9276 301.516 65.7436 302.003 66.2901 302.978C67.1573 304.566 68.0343 306.14 68.8605 307.638C68.7771 306.018 68.6506 304.296 68.5978 302.572C68.5473 301.202 69.7029 299.407 70.8672 299.159C72.4909 298.792 74.1501 298.553 75.7987 298.255L75.7726 298.247Z" fill="#6594F1"/>
<path fill-rule="evenodd" clip-rule="evenodd" d="M172.946 220.3C172.138 218.538 172.198 216.517 172.273 214.579C169.978 216.181 166.627 215.009 164.823 212.87C163.019 210.731 162.316 207.908 161.44 205.251C159.87 200.493 150.666 186.757 151.477 183.951C151.907 182.463 157.099 181.399 157.099 181.399L151.196 174.128C151.196 174.128 146.151 175.674 143.763 175.19C137.118 173.845 132.902 171.597 132.476 172.724C130.932 176.802 147.917 206.749 140.096 203.646C128.358 198.989 115.342 167.906 109.027 163.465C106.382 161.606 85.8266 155.322 87.6417 150.456C90.0797 143.921 109.712 146.123 109.712 146.123C109.712 146.123 110.919 128.597 121.397 117.806C123.797 115.334 126.684 112.5 127.923 109.654C128.263 108.874 158.909 95.8725 162.217 95.8862C169.932 95.9182 177.639 97.2894 184.892 99.9201C185.858 100.271 211.879 114.413 216.626 139.413C217.484 143.931 217.417 175.083 200.715 188.409C198.08 190.512 197.025 193.948 197.036 197.348C197.047 200.749 197.19 204.581 194.828 207.027C195.879 202.088 196.375 197.031 196.303 191.981C193.262 192.828 193.077 197.024 193.536 200.148C194.116 204.084 194.695 208.021 195.274 211.958C195.515 213.595 195.73 215.38 194.891 216.807C193.932 218.438 191.926 219.066 190.099 219.561C185.929 220.692 181.759 221.822 177.59 222.952C175.718 223.46 173.754 222.063 172.946 220.3Z" fill="white"/>
<path fill-rule="evenodd" clip-rule="evenodd" d="M155.46 131.449C155.967 130.861 156.979 130.917 157.542 131.451C158.106 131.985 158.256 132.851 158.092 133.61C157.929 134.368 157.497 135.04 157.031 135.662C156.607 136.228 156.149 136.769 155.659 137.28C155.614 137.328 155.557 137.379 155.492 137.37C155.423 137.36 155.382 137.289 155.354 137.225C154.646 135.648 154.553 133.806 155.097 132.165C155.181 131.909 155.284 131.653 155.46 131.449ZM157.364 132.349C157.237 132.119 157.035 131.924 156.787 131.84C156.207 131.644 155.573 132.12 155.372 132.698C155.171 133.277 155.282 133.912 155.396 134.514C155.477 134.945 155.558 135.376 155.639 135.807C155.667 135.953 155.758 136.143 155.902 136.102C155.96 136.086 155.999 136.034 156.034 135.985C156.241 135.698 156.447 135.411 156.653 135.123C156.948 134.713 157.246 134.295 157.415 133.819C157.584 133.343 157.609 132.791 157.364 132.349L157.364 132.349Z" fill="#FFB61D"/>
<path fill-rule="evenodd" clip-rule="evenodd" d="M156.304 134.045C156.15 134.032 156 133.968 155.884 133.865C155.66 133.665 155.584 133.316 155.704 133.04C155.824 132.765 156.131 132.583 156.431 132.611C156.884 132.654 157.206 133.206 157.02 133.622C156.899 133.892 156.599 134.069 156.304 134.045Z" fill="#FFB61D"/>
<path fill-rule="evenodd" clip-rule="evenodd" d="M138.869 203.712C139.316 203.949 138.87 204.615 138.429 204.864C134.219 207.248 129.399 208.544 124.561 208.593C123.476 208.604 122.377 208.552 121.337 208.244C119.408 207.671 117.809 206.238 116.754 204.525C115.698 202.812 115.146 200.832 114.836 198.844C113.987 193.407 114.906 187.709 117.422 182.815C117.659 182.355 118.226 181.838 118.597 182.2C117.83 183.863 117.168 185.576 116.618 187.323C116.077 189.039 115.642 190.8 115.523 192.596C115.412 194.258 115.575 195.926 115.776 197.579C115.983 199.279 116.235 200.992 116.853 202.589C117.472 204.185 118.492 205.676 119.95 206.574C121.778 207.7 124.057 207.776 126.196 207.597C130.633 207.225 134.986 205.891 138.869 203.712Z" fill="#00160A"/>
<path fill-rule="evenodd" clip-rule="evenodd" d="M159.797 189.296C164.481 187.203 169.166 185.111 173.85 183.018C174.112 182.9 174.471 182.805 174.644 183.034C174.875 183.34 174.459 183.714 174.11 183.872C169.061 186.143 164.013 188.415 158.964 190.687C158.748 190.453 158.807 190.06 159.006 189.812C159.205 189.564 159.507 189.426 159.797 189.296L159.797 189.296Z" fill="#00160A"/>
<path fill-rule="evenodd" clip-rule="evenodd" d="M140.798 160.121C140.576 160.08 140.353 160.038 140.131 159.996C139.952 159.236 139.773 158.45 139.914 157.682C140.056 156.915 140.607 156.166 141.378 156.049C142.251 155.917 142.838 155.01 142.904 154.129C142.97 153.248 142.64 152.392 142.308 151.573C141.971 150.742 141.306 149.745 140.445 149.995C139.884 150.158 139.295 149.728 139.044 149.2C138.793 148.672 138.781 148.067 138.708 147.487C138.569 146.39 138.176 145.3 137.438 144.476C136.7 143.653 135.587 143.129 134.487 143.254C133.397 143.378 132.473 144.089 131.443 144.466C130.412 144.843 128.99 144.717 128.565 143.705C128.458 143.447 128.443 143.12 128.634 142.917C128.826 142.714 129.252 142.779 129.292 143.055C129.396 143.758 130.287 144.081 130.98 143.92C131.672 143.759 132.244 143.287 132.881 142.97C134.127 142.352 135.666 142.362 136.903 142.997C138.14 143.632 139.046 144.876 139.27 146.248C139.378 146.91 139.339 147.602 139.567 148.232C139.795 148.862 140.425 149.431 141.077 149.276C141.813 149.1 142.398 149.878 142.734 150.556C143.189 151.474 143.606 152.439 143.673 153.461C143.741 154.483 143.401 155.583 142.584 156.201C141.904 156.716 140.88 156.956 140.654 157.778C140.444 158.545 141.103 159.387 140.798 160.121Z" fill="#00160A"/>
<path fill-rule="evenodd" clip-rule="evenodd" d="M162.309 130.081C163.344 131.136 164.11 132.492 164.297 133.958C164.485 135.425 164.048 136.996 163 138.039C160.833 140.197 156.651 139.791 155.175 142.47C154.798 143.152 154.664 143.957 154.221 144.598C153.916 145.041 153.483 145.377 153.097 145.752C152.268 146.557 151.642 147.568 151.29 148.667C150.709 148.749 150.348 147.979 150.49 147.41C150.632 146.841 151.053 146.38 151.246 145.826C151.61 144.785 151.117 143.665 150.725 142.634C150.137 141.088 149.761 139.385 150.169 137.782C150.301 137.265 150.513 136.767 150.583 136.239C150.658 135.671 150.566 135.096 150.508 134.525C150.351 132.987 150.476 131.326 151.391 130.08C152.306 128.834 154.207 128.23 155.461 129.134C155.817 129.391 156.122 129.759 156.552 129.85C157.306 130.01 157.913 129.265 158.606 128.927C159.849 128.322 161.34 129.094 162.309 130.081M151.182 141.358C151.585 142.695 151.988 144.033 152.392 145.37C153.657 144.753 153.859 143.065 154.616 141.878C155.648 140.261 157.665 139.655 159.464 138.99C161.263 138.326 163.214 137.226 163.569 135.341C163.854 133.826 162.989 132.352 162.104 131.091C161.604 130.379 161.002 129.627 160.146 129.477C159.281 129.324 158.459 129.835 157.659 130.198C156.859 130.562 155.791 130.738 155.203 130.085C154.376 129.167 152.727 129.593 152.019 130.606C151.311 131.62 151.29 132.949 151.35 134.184C151.411 135.419 151.515 136.714 150.998 137.837C150.494 138.929 150.834 140.206 151.182 141.358Z" fill="#00160A"/>
<path fill-rule="evenodd" clip-rule="evenodd" d="M96.9304 93.8523C96.931 93.6937 97.1899 93.7457 97.2947 93.8645C97.235 94.0073 96.985 93.9975 96.9367 93.8504L96.9304 93.8523Z" fill="#00160A"/>
<path fill-rule="evenodd" clip-rule="evenodd" d="M170.643 186.362C170.898 186.5 170.917 186.884 170.757 187.126C170.597 187.368 170.321 187.501 170.058 187.623C167.932 188.607 165.806 189.591 163.681 190.576C163.524 190.649 163.344 190.722 163.184 190.657C162.968 190.569 162.92 190.263 163.027 190.057C163.134 189.851 163.344 189.722 163.545 189.604C165.613 188.397 167.764 187.334 169.979 186.425C170.192 186.338 170.44 186.253 170.643 186.362L170.643 186.362Z" fill="#00160A"/>
<path fill-rule="evenodd" clip-rule="evenodd" d="M133.67 146.864C134.492 147.258 134.848 148.301 134.68 149.197C134.512 150.093 133.929 150.856 133.284 151.499C132.928 151.854 132.548 152.184 132.147 152.487C131.859 152.705 131.516 152.919 131.161 152.85C130.569 152.734 130.407 151.974 130.386 151.371C130.358 150.523 130.358 149.673 130.388 148.825C130.402 148.408 130.428 147.974 130.635 147.612C130.952 147.059 131.617 146.805 132.248 146.715C132.727 146.648 133.234 146.655 133.67 146.864M131.255 150.899C131.282 151.025 131.313 151.155 131.391 151.258C131.455 151.342 131.55 151.402 131.653 151.425C131.919 151.485 132.173 151.302 132.384 151.129C132.937 150.679 133.51 150.204 133.797 149.551C134.084 148.898 133.982 148.014 133.379 147.632C132.674 147.186 131.675 147.687 131.319 148.442C130.963 149.197 131.078 150.083 131.255 150.899Z" fill="#FFB61D"/>
<path fill-rule="evenodd" clip-rule="evenodd" d="M133.044 148.432C133.228 148.578 133.352 148.798 133.381 149.032C133.406 149.24 133.356 149.457 133.243 149.633C132.98 150.039 132.364 150.162 131.966 149.886C131.568 149.611 131.466 148.992 131.754 148.603C132.042 148.214 132.664 148.131 133.044 148.432ZM132.603 149.315C132.795 149.29 132.766 148.93 132.573 148.936C132.437 148.905 132.29 149.036 132.306 149.175C132.322 149.314 132.494 149.408 132.62 149.347L132.603 149.315Z" fill="#FFB61D"/>
<path fill-rule="evenodd" clip-rule="evenodd" d="M174.931 173.608C174.647 172.919 174.429 172.203 174.279 171.474C174.231 171.241 174.568 171.086 174.778 171.198C174.988 171.31 175.082 171.556 175.158 171.782C175.425 172.568 175.691 173.353 175.958 174.139C175.821 174.333 175.513 174.329 175.32 174.192C175.126 174.055 175.021 173.827 174.931 173.608L174.931 173.608Z" fill="#00160A"/>
<path fill-rule="evenodd" clip-rule="evenodd" d="M180.702 207.566C180.681 207.638 180.63 207.697 180.579 207.753C180.064 208.309 179.438 208.761 178.748 209.076C177.651 209.576 176.346 209.763 175.528 210.649C175.334 210.859 174.943 210.753 174.814 210.499C174.685 210.244 174.774 209.922 174.956 209.702C175.137 209.481 175.395 209.34 175.646 209.204C176.464 208.76 177.282 208.317 178.101 207.873C178.728 207.534 179.38 207.186 180.091 207.137C180.384 207.117 180.783 207.284 180.702 207.566L180.702 207.566Z" fill="#00160A"/>
<path fill-rule="evenodd" clip-rule="evenodd" d="M176.535 171.089C176.853 171.965 177.171 172.841 177.488 173.716C177.542 173.863 177.595 174.028 177.534 174.172C177.439 174.396 177.109 174.427 176.907 174.292C176.705 174.156 176.603 173.916 176.519 173.688C176.247 172.953 176.041 172.194 175.905 171.423C175.852 171.122 175.956 170.67 176.254 170.739C176.406 170.774 176.482 170.942 176.535 171.089L176.535 171.089Z" fill="#00160A"/>
<path fill-rule="evenodd" clip-rule="evenodd" d="M168.638 172.364C168.597 172.211 168.567 172.02 168.688 171.918C168.888 171.749 169.152 172.037 169.246 172.28C169.579 173.143 169.798 174.049 169.896 174.969C169.458 175.018 169.207 174.492 169.094 174.066C168.942 173.498 168.79 172.931 168.638 172.364Z" fill="#00160A"/>
<path fill-rule="evenodd" clip-rule="evenodd" d="M168.436 174.462C168.577 174.787 168.663 175.268 168.337 175.408C168.006 175.551 167.715 175.142 167.596 174.801C167.31 173.977 167.112 173.123 167.008 172.257C167.326 172.14 167.593 172.513 167.727 172.824C167.963 173.37 168.2 173.916 168.436 174.462Z" fill="#00160A"/>
<path fill-rule="evenodd" clip-rule="evenodd" d="M169.942 172.34C169.895 172.148 169.876 171.901 170.044 171.796C170.283 171.647 170.539 171.962 170.647 172.222C170.961 172.978 171.275 173.735 171.59 174.491C171.491 174.685 171.208 174.717 171.017 174.612C170.826 174.507 170.709 174.308 170.609 174.115C170.317 173.552 170.093 172.955 169.942 172.34L169.942 172.34Z" fill="#00160A"/>
<path fill-rule="evenodd" clip-rule="evenodd" d="M173.706 172.327C173.877 172.864 174.048 173.401 174.218 173.939C174.286 174.152 174.344 174.415 174.188 174.575C174.038 174.73 173.763 174.682 173.607 174.534C173.451 174.385 173.383 174.168 173.323 173.962C173.152 173.381 172.985 172.798 172.822 172.215C172.786 172.086 172.752 171.944 172.809 171.823C172.906 171.622 173.212 171.613 173.387 171.751C173.562 171.889 173.639 172.114 173.706 172.327L173.706 172.327Z" fill="#00160A"/>
<path fill-rule="evenodd" clip-rule="evenodd" d="M172.745 174.153C172.785 174.252 172.825 174.364 172.781 174.461C172.721 174.591 172.535 174.615 172.41 174.546C172.286 174.477 172.211 174.346 172.145 174.22C171.712 173.393 171.425 172.49 171.298 171.565C171.459 171.383 171.725 171.647 171.817 171.871C172.126 172.632 172.435 173.392 172.745 174.153Z" fill="#00160A"/>
<path fill-rule="evenodd" clip-rule="evenodd" d="M180.461 172.759C180.49 172.837 180.519 172.923 180.487 172.999C180.439 173.114 180.273 173.136 180.165 173.073C180.057 173.01 179.995 172.894 179.938 172.782C179.537 171.988 179.173 171.175 178.848 170.346C179.144 170.155 179.48 170.522 179.634 170.839C179.94 171.465 180.216 172.106 180.461 172.759L180.461 172.759Z" fill="#00160A"/>
<path fill-rule="evenodd" clip-rule="evenodd" d="M178.31 172.601C178.142 172.004 177.975 171.407 177.807 170.81C177.776 170.701 177.749 170.572 177.821 170.483C177.961 170.309 178.23 170.51 178.343 170.703C178.701 171.316 178.946 171.994 179.062 172.694C179.084 172.83 179.096 172.986 179.006 173.089C178.891 173.221 178.663 173.188 178.536 173.067C178.409 172.947 178.357 172.77 178.31 172.601L178.31 172.601Z" fill="#00160A"/>
<path fill-rule="evenodd" clip-rule="evenodd" d="M181.686 171.897C181.483 171.407 181.281 170.917 181.078 170.427C181.006 170.252 181.237 170.077 181.42 170.123C181.604 170.17 181.723 170.341 181.822 170.502C182.004 170.799 182.172 171.103 182.326 171.415C182.412 171.587 182.495 171.772 182.479 171.963C182.464 172.155 182.314 172.35 182.122 172.345C181.901 172.339 181.77 172.101 181.686 171.897L181.686 171.897Z" fill="#00160A"/>
<path fill-rule="evenodd" clip-rule="evenodd" d="M180.76 172.372C180.471 171.717 180.209 171.05 179.974 170.374C179.934 170.256 179.897 170.116 179.97 170.016C180.053 169.902 180.238 169.914 180.347 170.003C180.456 170.092 180.508 170.232 180.556 170.364C180.774 170.973 180.993 171.582 181.211 172.191C181.271 172.356 181.301 172.592 181.139 172.659C180.976 172.726 180.831 172.534 180.76 172.372L180.76 172.372Z" fill="#00160A"/>
<path fill-rule="evenodd" clip-rule="evenodd" d="M191.961 210.366C192.551 210.4 194.024 210.537 194.613 210.571C194.878 210.586 195.233 210.708 195.187 210.968C195.148 211.183 194.867 211.233 194.649 211.226C194.048 211.206 192.566 211.023 191.981 210.882C191.774 210.832 191.512 210.65 191.626 210.468C191.691 210.364 191.838 210.359 191.961 210.366Z" fill="#00160A"/>
<path fill-rule="evenodd" clip-rule="evenodd" d="M141.153 166.234C141.985 166.558 142.902 167.122 142.949 168.014C142.994 168.851 142.178 169.534 141.347 169.65C140.516 169.766 139.689 169.468 138.903 169.174C128.184 165.16 117.557 160.9 107.033 156.4C106.377 156.12 106.673 155.133 107.068 154.54C107.304 154.185 107.559 153.814 107.945 153.635C108.501 153.376 109.15 153.587 109.725 153.799C117.435 156.647 125.159 159.501 132.563 163.07C133.736 163.636 134.903 164.22 136.127 164.663C137.778 165.261 139.517 165.596 141.153 166.234M141.628 168.628C141.938 168.345 141.84 167.8 141.54 167.505C141.241 167.209 140.812 167.097 140.405 166.989C135.194 165.609 130.345 163.15 125.412 160.974C121.827 159.392 118.18 157.954 114.535 156.516C113.015 155.917 111.496 155.318 109.976 154.719C109.491 154.527 108.954 154.334 108.462 154.507C107.97 154.68 107.683 155.412 108.094 155.733C108.168 155.791 108.255 155.829 108.342 155.866C118.92 160.409 129.621 164.669 140.427 168.639C140.824 168.784 141.316 168.913 141.628 168.628Z" fill="#00160A"/>
<path fill-rule="evenodd" clip-rule="evenodd" d="M131.073 172.348C131.248 174.798 132.73 177.116 134.88 178.304C135.892 178.863 136.26 180.11 136.536 181.232C136.823 182.398 136.7 184.148 135.499 184.168C137.893 190.17 140.287 196.172 142.681 202.174C142.959 202.872 143.094 203.913 142.381 204.149C142.117 204.237 141.828 204.159 141.564 204.07C138.171 202.933 135.595 200.185 133.322 197.42C130.05 193.439 127.087 189.205 124.466 184.768C122.551 181.526 118.849 179.422 115.084 179.436C113.131 179.443 111.476 177.326 111.954 175.432C112.433 173.539 114.896 172.462 116.611 173.397C115.395 168.34 111.455 164.025 106.53 162.355C100.584 160.34 94.9117 157.521 89.7146 154C89.2581 153.69 88.7759 153.337 88.6138 152.81C88.2907 151.759 89.3824 150.844 90.3578 150.336C97.5443 146.598 106.502 146.477 113.787 150.019C114.097 150.17 114.418 149.844 114.611 149.558C119.517 142.27 124.424 134.983 129.33 127.696C129.922 126.817 131.44 127.231 131.917 128.178C132.393 129.124 132.151 130.26 131.866 131.28C129.742 138.886 125.688 146.415 126.956 154.209C127.015 154.573 127.093 154.951 127.33 155.233C127.563 155.511 127.914 155.654 128.252 155.786C134.992 158.438 141.733 161.089 148.474 163.741C149.314 164.071 150.389 164.358 151.02 163.712C152.634 162.056 154.249 160.401 155.864 158.745C156.377 158.218 157.028 157.646 157.748 157.796C158.78 158.012 158.94 159.468 158.54 160.443C158.141 161.418 157.418 162.343 157.522 163.392C159.748 162.292 162.009 161.18 164.45 160.725C166.891 160.269 169.577 160.545 171.572 162.023C168.424 164.428 165.275 166.833 162.127 169.238C163.37 170.946 162.47 173.757 160.466 174.424C159.61 174.71 159.741 175.951 160.045 176.8C160.998 179.461 161.95 182.121 162.902 184.781C161.193 184.914 159.755 183.585 158.593 182.325C156.517 180.072 154.546 177.722 152.69 175.284C151.79 174.101 149.971 175.011 148.569 175.505C146.343 176.289 143.895 175.697 141.611 175.101C138.098 174.183 134.586 173.265 131.073 172.348ZM138.617 170.151C140.653 171.041 142.718 171.975 144.927 172.212C147.19 172.455 149.528 171.928 151.467 170.738C151.938 170.448 152.54 170.541 153.083 170.644C154.957 170.998 156.923 171.394 158.38 172.624C159.038 173.179 160.081 173.213 160.773 172.703C161.466 172.192 161.742 171.186 161.407 170.394C160.813 170.154 160.386 170.964 159.879 171.354C159.212 171.866 158.26 171.635 157.458 171.381C154.516 170.449 151.575 169.517 148.633 168.585C147.919 168.359 147.029 167.794 147.312 167.101C147.436 166.795 147.757 166.624 148.058 166.491C149.116 166.024 150.241 165.709 151.388 165.561C139.631 161.277 127.954 156.77 116.366 152.046C110.668 149.723 104.572 147.299 98.5342 148.489C97.9706 148.6 97.3019 149.298 97.8032 149.578C99.2794 150.404 100.756 151.23 102.232 152.056C102.408 152.155 102.594 152.264 102.68 152.446C102.937 152.993 102.133 153.417 101.53 153.442C99.0401 153.545 96.5276 152.45 94.908 150.557C94.5409 150.128 94.1083 149.611 93.5473 149.675C92.8695 149.753 92.6061 150.698 92.9332 151.296C93.2602 151.895 93.9263 152.211 94.5496 152.488C100.149 154.98 105.748 157.471 111.347 159.963C112.921 160.663 114.5 161.366 116.148 161.866C123.791 164.187 131.297 166.955 138.617 170.151ZM138.694 195.49C137.718 191.982 136.387 188.573 134.728 185.331C134.185 184.27 133.777 183.145 133.371 182.025C131.594 177.124 129.817 172.223 128.041 167.322C127.863 166.833 127.335 166.58 126.854 166.383C122.747 164.701 118.461 163.454 114.093 162.67C113.77 162.612 113.417 162.561 113.13 162.72C112.464 163.09 112.748 164.098 113.118 164.762C116.825 171.415 120.82 177.907 125.086 184.215C125.871 185.376 126.674 186.54 127.689 187.507C129.604 189.33 131.52 191.153 133.435 192.976C134.901 194.371 136.708 195.874 138.694 195.49M126.808 144.264C127.13 143.146 127.542 142.04 127.634 140.881C127.801 138.791 126.919 136.773 125.994 134.893C125.922 134.747 125.818 134.58 125.655 134.579C125.507 134.578 125.402 134.716 125.322 134.841C122.449 139.291 119.576 143.741 116.704 148.191C116.161 149.031 115.613 149.883 115.308 150.835C119.022 152.274 122.736 153.713 126.45 155.153C125.669 151.568 125.794 147.79 126.808 144.264ZM170.053 162.231C167.809 161.168 165.104 161.129 162.831 162.128C158.666 163.956 154.374 165.493 149.996 166.725C149.397 166.894 148.75 167.087 148.381 167.588C151.311 168.533 154.242 169.479 157.172 170.424C157.945 170.673 158.882 170.893 159.495 170.36C162.849 167.444 166.377 164.727 170.053 162.231ZM89.6761 151.796C89.5349 151.935 89.3955 152.096 89.3719 152.292C89.3301 152.64 89.6528 152.911 89.9426 153.107C95.8032 157.075 102.413 159.77 108.969 162.437C109.621 162.702 110.3 162.972 111.003 162.936C111.707 162.9 112.442 162.465 112.587 161.776C108.502 159.571 104.267 157.643 99.922 156.009C97.3191 155.03 94.607 154.116 92.5026 152.298C91.9949 151.859 91.4916 151.172 91.7995 150.576C91.0035 150.793 90.2649 151.218 89.6761 151.796ZM151.557 173.555C151.513 172.967 150.931 172.539 150.347 172.453C149.764 172.367 149.178 172.538 148.607 172.686C147.289 173.025 145.918 173.248 144.568 173.079C143.391 172.932 142.272 172.494 141.168 172.059C137.138 170.474 133.107 168.888 129.077 167.303C129.477 168.988 130.151 170.965 131.83 171.389C135.115 172.22 138.281 173.495 141.595 174.204C144.909 174.912 148.497 175.012 151.557 173.555ZM159.649 180.528C159.804 180.563 159.995 180.578 160.094 180.454C160.178 180.349 160.153 180.198 160.122 180.068C159.609 177.874 158.752 175.778 157.898 173.693C157.767 173.375 157.63 173.046 157.38 172.811C157.121 172.567 156.77 172.45 156.428 172.351C155.031 171.946 153.582 171.721 152.128 171.683C152.009 171.68 151.865 171.693 151.812 171.799C151.771 171.882 151.807 171.98 151.845 172.065C152.685 173.946 154.012 175.562 155.323 177.152C156.51 178.591 157.831 180.115 159.649 180.528ZM117.821 174.996C117.731 174.852 117.635 174.7 117.484 174.621C117.362 174.556 117.219 174.547 117.08 174.539C116.761 174.521 116.441 174.503 116.122 174.485C115.809 174.468 115.362 174.595 115.432 174.901C115.652 175.854 115.5 176.887 115.015 177.737C114.858 178.012 115.241 178.275 115.545 178.364C117.118 178.828 118.692 179.292 120.265 179.755C120.429 179.804 120.675 179.803 120.696 179.633C119.738 178.088 118.779 176.542 117.821 174.996ZM151.822 164.063C151.609 164.305 151.782 164.718 152.07 164.861C152.359 165.004 152.701 164.959 153.019 164.911C154.166 164.736 155.419 164.504 156.161 163.612C156.403 163.321 156.572 162.978 156.739 162.639C157.025 162.057 157.311 161.475 157.597 160.892C157.66 160.763 157.726 160.622 157.697 160.48C157.669 160.339 157.498 160.222 157.378 160.302C156.894 160.626 156.302 160.785 155.721 160.746C155.47 160.73 155.213 160.678 154.97 160.746C154.681 160.828 154.467 161.063 154.268 161.288C153.453 162.213 152.637 163.138 151.822 164.063ZM135.146 179.922C135.02 178.995 133.977 178.311 133.077 178.564C133.722 179.616 133.827 180.907 134.279 182.055C134.435 182.451 134.675 182.866 135.082 182.988C135.489 183.11 136.015 182.702 135.838 182.315C135.492 181.557 135.258 180.748 135.146 179.922ZM114.096 174.467C113.256 174.838 113.086 175.934 113.034 176.85C113.016 177.159 113.16 177.605 113.454 177.509C113.554 177.476 113.62 177.383 113.679 177.296C113.968 176.866 114.263 176.426 114.392 175.924C114.522 175.422 114.456 174.839 114.096 174.467Z" fill="#00160A"/>
<path fill-rule="evenodd" clip-rule="evenodd" d="M173.892 221.955C173.084 220.192 173.144 218.171 173.219 216.234C170.924 217.835 168.42 218.646 166.617 216.507C164.813 214.367 163.262 209.563 162.385 206.905C160.815 202.148 158.528 197.627 155.625 193.544C156.851 196.595 156.965 200.079 155.941 203.204C157.521 203.775 159.101 204.345 160.682 204.916C154.716 204.745 148.79 203.318 143.402 200.753C147.378 199.337 150.984 196.896 153.777 193.732C153.834 192.615 152.247 192.287 151.156 192.533C150.065 192.78 148.659 193.086 148.046 192.15C147.291 190.999 148.255 188.633 146.881 188.547C143.314 188.323 140.234 184.976 140.306 181.403C139.374 181.593 138.442 181.784 137.51 181.974C137.583 180.667 139.605 180.391 140.569 181.277C141.533 182.162 141.77 183.56 142.207 184.793C142.644 186.027 143.598 187.328 144.905 187.257C147.34 187.126 149.481 189.802 148.818 192.149C150.929 191.451 153.35 191.766 155.212 192.98C154.616 190.618 153.831 188.304 152.867 186.067C154.664 184.915 156.665 184.083 158.749 183.621C157.345 184.871 155.686 185.833 153.903 186.43C158.356 195.932 162.809 205.434 167.261 214.935C167.542 215.533 167.876 216.184 168.492 216.423C169.166 216.686 169.912 216.355 170.56 216.032C175.173 213.725 179.787 211.419 184.401 209.112C185.603 208.511 186.885 207.832 187.481 206.628C188.23 205.115 187.652 203.311 187.045 201.736C184.603 195.399 181.802 189.201 178.66 183.18C177.281 180.54 175.27 177.578 172.292 177.593C168.698 177.611 166.18 182.071 162.596 181.8C164.059 180.832 165.523 179.863 166.986 178.895C165.586 176.792 164.342 172.801 165.099 170.391C167.161 169.563 169.455 169.21 171.333 168.983C171.142 164.689 171.616 163.988 173.91 164.267C176.204 164.547 178.214 164.725 180.39 164.8C186.423 165.007 192.156 157.457 188.972 152.245C187.22 149.377 175.774 123.375 170.428 113.368C170.028 116.285 165.534 117.501 163.718 115.183C163.59 116.903 161.804 118.376 160.125 117.983C158.445 117.59 157.545 115.229 158.671 113.922C159.641 112.798 161.388 112.835 162.681 112.107C163.975 111.378 164.064 108.75 162.595 108.964C160.984 111.317 156.78 111.007 155.531 108.444C155.092 107.541 154.259 107.049 153.289 106.862C152.101 106.632 150.004 106.345 148.878 106.838C147.114 107.611 146.137 109.336 144.276 109.613C143.979 109.658 143.678 109.678 143.371 109.669C141.139 109.605 139.097 106.611 140.805 105.172C133.232 108.266 126.723 113.901 122.577 120.954C125.205 122.89 124.323 126.961 123.174 130.016C119.542 129.62 120.3 137.118 116.734 137.914C112.669 138.821 111.733 144.108 111.655 148.272C111.002 139.898 113.752 131.308 119.147 124.871C117.132 129.48 115.116 134.089 113.101 138.698C115.448 139.202 117.358 136.826 118.378 134.654C119.398 132.481 120.522 129.896 122.864 129.372C122.829 127.316 123.27 125.254 124.141 123.392C123.421 122.823 122.7 122.253 121.98 121.683C120.196 124.964 115.712 125.233 111.988 125.524C107.968 125.839 103.988 126.665 100.175 127.976C96.085 129.382 91.7844 131.809 90.6248 135.975C89.5099 139.982 91.7478 144.198 94.6303 147.196C90.8726 145.784 88.8928 141.235 89.6712 137.297C90.4496 133.359 93.4912 130.144 97.0582 128.303C100.625 126.462 104.684 125.821 108.684 125.481C113.921 125.037 120.34 124.32 122.342 119.46C124.012 115.409 130.012 113.066 129.16 108.768C127.962 102.731 128.409 96.3761 130.439 90.5657C131.44 87.6992 133.161 84.6732 136.1 83.9129C137.564 83.5344 139.114 83.7898 140.581 84.1531C146.023 85.5006 151.087 88.3423 155.073 92.285C157.425 94.612 159.854 97.5272 163.163 97.5409C170.878 97.5729 178.585 98.944 185.837 101.575C186.804 101.925 187.868 101.516 188.797 101.075C192.452 99.3381 195.83 97.0106 199.626 95.6078C203.422 94.205 207.908 93.8493 211.336 96.0004C214.924 98.2524 216.535 102.797 216.402 107.031C216.269 111.266 214.681 115.302 213.115 119.238C210.31 126.288 217.78 133.484 217.572 141.068C217.449 145.54 221.238 149.047 224.826 151.718C228.415 154.389 232.439 157.367 233.155 161.783C233.821 165.896 231.208 169.983 227.746 172.301C224.283 174.618 220.096 175.529 216.021 176.394C209.422 177.795 207.684 187.027 201.66 190.064C198.624 191.595 197.97 195.602 197.981 199.003C197.992 202.404 198.136 206.236 195.773 208.682C196.824 203.743 197.32 198.685 197.249 193.636C194.207 194.483 194.022 198.678 194.482 201.802C195.061 205.739 195.641 209.676 196.22 213.613C196.461 215.25 196.675 217.035 195.837 218.462C194.878 220.093 192.871 220.721 191.045 221.216C186.875 222.346 182.705 223.477 178.535 224.607C176.664 225.114 174.7 223.718 173.892 221.955ZM192.144 194.471C191.977 194.039 191.39 194 190.927 194.035C190.464 194.071 190.001 194.106 189.537 194.141C189.436 194.148 189.325 194.154 189.242 194.094C189.086 193.983 189.153 193.715 189.315 193.612C189.478 193.51 189.684 193.522 189.875 193.53C190.283 193.548 190.693 193.535 191.099 193.492C191.332 193.468 191.59 193.417 191.723 193.225C191.855 193.032 191.708 192.684 191.481 192.741C190.814 192.908 190.117 192.955 189.434 192.877C189.229 192.853 188.959 192.686 189.073 192.514C189.117 192.448 189.201 192.426 189.279 192.41C189.967 192.267 190.677 192.225 191.378 192.284C191.63 192.306 191.717 191.9 191.534 191.724C191.351 191.549 191.067 191.551 190.814 191.565C190.202 191.598 189.591 191.631 188.979 191.664C188.848 191.672 188.697 191.689 188.622 191.797C188.555 191.894 188.577 192.025 188.602 192.14C188.761 192.881 188.92 193.622 189.079 194.364C189.103 194.477 189.133 194.599 189.224 194.671C189.322 194.749 189.46 194.743 189.585 194.733C190.44 194.665 191.293 194.578 192.144 194.471ZM180.497 115.941C179.251 115.5 178.847 113.746 179.531 112.615C180.215 111.484 181.649 110.982 182.968 111.063C184.761 111.173 186.576 112.177 188.265 111.567C189.024 111.293 189.638 110.722 190.366 110.374C191.952 109.615 194.036 110.107 195.116 111.495C195.74 110.786 195.106 109.639 194.289 109.167C193.472 108.694 192.466 108.519 191.8 107.85C190.632 106.673 188.659 106.888 187.131 107.534C185.604 108.179 184.177 109.177 182.527 109.348C180.878 109.518 178.915 108.348 179.094 106.699C179.15 106.186 179.367 105.559 178.968 105.23C178.34 104.711 178.279 103.728 178.606 102.982C178.933 102.236 179.561 101.67 180.17 101.129C178.782 100.53 177.346 100.044 175.88 99.6778C175.528 99.5899 175.045 99.5723 174.92 99.9123C174.659 100.615 173.82 100.875 173.09 101.044C171.544 101.401 169.999 101.758 168.454 102.115C168.188 102.948 169.321 103.593 170.182 103.443C171.044 103.292 171.818 102.737 172.692 102.72C173.159 102.711 173.613 102.858 174.057 103.003C174.815 103.251 175.573 103.499 176.332 103.747C177.303 104.065 178.503 104.79 178.197 105.765C177.946 106.565 176.904 106.699 176.14 107.044C174.402 107.83 173.497 110.269 171.589 110.298C170.911 110.308 170.446 111.068 170.489 111.745C170.532 112.422 170.927 113.018 171.299 113.585C177.792 123.48 187.058 146.203 187.382 146.375C187.706 146.547 188.197 146.452 188.306 146.102C188.587 145.196 188.877 144.274 189.415 143.493C189.954 142.712 190.79 142.079 191.737 142.022C192.61 141.969 193.727 142.301 194.189 141.558C195.222 139.897 197.538 139.179 199.33 139.964C200.21 140.35 201.074 141.063 202.009 140.841C201.619 140.044 200.771 139.593 200.159 138.951C199.546 138.308 199.232 137.143 199.94 136.609C200.987 135.819 200.53 134.106 201.18 132.968C201.456 132.485 201.916 132.138 202.381 131.831C203.955 130.792 205.728 130.056 207.575 129.675C208.004 129.587 208.263 129.159 208.469 128.773C208.968 127.839 209.467 126.905 209.966 125.972C210.314 125.32 210.671 124.557 210.389 123.874C209.474 121.652 206.944 120.647 204.666 119.88C202.388 119.114 199.856 118.137 198.903 115.93C198.607 115.245 197.659 115.087 196.962 115.353C196.265 115.619 195.727 116.175 195.12 116.609C193.224 117.964 190.503 118.042 188.533 116.798C187.478 116.131 186.549 115.097 185.304 115.001C183.645 114.873 182.066 116.496 180.497 115.941ZM206.887 176.547C206.863 176.822 206.857 177.145 207.071 177.321C207.242 177.461 207.488 177.448 207.709 177.428C208.443 177.361 209.176 177.293 209.91 177.226C210.286 177.191 210.721 177.121 210.908 176.792C214.704 170.131 217.104 162.679 217.909 155.055C218.099 153.252 218.202 151.436 218.11 149.625C217.994 147.312 217.563 145.027 217.092 142.759C216.414 139.495 215.649 136.25 214.799 133.026C214.271 133.423 213.935 134.017 213.543 134.549C213.151 135.081 212.636 135.592 211.98 135.678C211.325 135.765 210.577 135.205 210.708 134.557C210.992 133.156 209.946 131.627 208.537 131.384C208.235 131.332 208.01 131.649 207.868 131.921C206.579 134.399 205.29 136.877 204 139.355C203.907 139.535 203.813 139.756 203.917 139.93C204.004 140.076 204.189 140.119 204.348 140.176C205.248 140.497 205.68 141.723 205.18 142.537C204.679 143.352 203.389 143.519 202.697 142.86C202.398 142.576 201.94 142.954 201.71 143.297C200.325 145.367 198.941 147.436 197.556 149.506C197.147 150.117 197.49 150.965 198.002 151.491C198.514 152.017 199.185 152.389 199.613 152.986C200.683 154.483 199.805 156.65 200.484 158.36C201.037 159.753 202.71 160.592 204.157 160.204C205.452 159.857 206.394 158.691 206.863 157.435C207.183 156.578 208.027 155.943 208.938 155.871C209.85 155.799 210.782 156.295 211.232 157.091C211.671 157.867 211.649 158.809 211.615 159.699C211.6 160.092 211.573 160.516 211.32 160.817C210.906 161.308 210.147 161.216 209.504 161.198C208.325 161.165 207.138 161.547 206.199 162.261C205.741 162.61 205.307 163.176 205.513 163.714C206.016 165.028 206.518 166.342 207.021 167.657C207.284 168.344 207.551 169.061 207.486 169.794C207.287 172.045 207.087 174.296 206.887 176.547ZM130.229 110.915C132.546 108.875 134.884 106.82 137.567 105.294C139.917 103.957 142.483 103.054 145.039 102.172C148.405 101.01 151.781 99.873 155.164 98.761C156.573 98.2981 158 97.836 159.479 97.7333C156.311 94.6481 153.122 91.5456 149.462 89.0626C145.803 86.5795 141.611 84.7242 137.199 84.4217C136.774 84.3926 136.342 84.3785 135.928 84.4794C135.229 84.6497 134.648 85.1313 134.152 85.6528C132.204 87.7024 131.232 90.4855 130.59 93.2391C129.242 99.02 129.118 105.083 130.229 110.915ZM187.612 218.505C187.438 218.862 186.909 219.061 186.633 218.775C186.503 218.64 186.467 218.443 186.436 218.258C185.97 215.425 185.504 212.591 185.037 209.757C184.053 209.76 183.251 210.646 183.006 211.599C182.76 212.552 182.943 213.556 183.125 214.523C183.405 216.002 183.685 217.481 183.965 218.96C183.434 219.212 183.012 218.456 182.904 217.878C182.518 215.819 182.132 213.759 181.747 211.7C179.07 212.968 176.393 214.236 173.716 215.504C174.241 217.944 174.766 220.383 175.292 222.822C175.415 223.397 175.996 223.783 176.578 223.867C177.16 223.951 177.747 223.798 178.315 223.646C182.587 222.504 186.86 221.362 191.132 220.221C191.457 220.134 191.809 220.028 191.999 219.75C192.197 219.46 192.154 219.074 192.103 218.727C189.649 201.983 186.575 185.33 182.891 168.813C182.782 168.327 182.622 167.774 182.168 167.57C181.865 167.433 181.514 167.495 181.188 167.559C176.973 168.39 172.758 169.221 168.544 170.051C167.763 170.205 166.983 170.359 166.202 170.513C165.999 170.553 165.777 170.604 165.653 170.769C165.505 170.965 165.551 171.239 165.604 171.478C166.137 173.862 166.757 176.227 167.461 178.566C169.754 177.415 172.407 176.245 174.788 177.201C176.843 178.026 177.991 180.174 178.972 182.159C179.545 183.321 180.119 184.483 180.692 185.644C180.271 182.506 179.545 179.41 178.527 176.412C178.591 175.995 179.233 176.355 179.385 176.748C180.904 180.668 180.901 185.074 182.607 188.916C184.351 192.842 186.094 196.769 187.837 200.695C188.578 202.363 189.332 204.216 188.79 205.959C188.294 207.55 186.841 208.623 185.444 209.531C186.361 212.076 187.093 214.687 187.635 217.337C187.714 217.726 187.786 218.148 187.612 218.505ZM195.197 107.1C196.295 107.778 197.395 108.456 198.435 109.219C201.116 111.183 203.362 113.67 205.588 116.138C207.53 118.293 209.482 120.46 211.032 122.912C213.46 117.12 215.405 111.196 215.519 104.917C215.552 103.106 214.833 100.872 213.903 99.3184C212.811 97.494 210.732 96.4692 208.655 96.0156C205.026 95.2232 201.2 95.8977 197.746 97.2644C194.292 98.631 191.147 100.661 188.028 102.678C190.418 104.152 192.807 105.626 195.197 107.1ZM219.159 148.548C219.32 158.282 216.916 168.048 212.253 176.594C217.381 175.749 222.35 173.957 226.837 171.334C229.072 170.028 231.32 168.346 232.124 165.885C232.785 163.862 232.338 161.6 231.333 159.724C230.328 157.848 228.812 156.301 227.245 154.861C224.724 152.545 222.018 150.431 219.159 148.548ZM207.215 160.633C208.211 160.351 209.234 160.164 210.266 160.076C210.472 159.516 210.682 158.936 210.648 158.339C210.615 157.743 210.273 157.122 209.701 156.952C209.099 156.773 208.456 157.144 208.062 157.632C207.668 158.121 207.44 158.721 207.097 159.247C206.149 160.701 204.26 161.471 202.565 161.095C200.871 160.72 199.484 159.222 199.24 157.504C199.043 156.119 199.504 154.594 198.823 153.373C198.445 152.696 197.777 152.241 197.132 151.811C196.982 151.711 196.822 151.608 196.642 151.603C196.353 151.595 196.126 151.836 195.94 152.058C194.697 153.543 193.453 155.029 192.21 156.514C191.75 157.063 191.264 157.804 191.597 158.438C194.674 164.296 194.102 171.573 197.291 177.37C197.385 177.542 197.51 177.731 197.705 177.755C200.144 178.059 202.623 178.05 205.06 177.729C205.254 177.703 205.458 177.671 205.61 177.548C205.764 177.423 205.837 177.225 205.897 177.036C206.307 175.732 206.397 174.33 206.157 172.984C206.044 172.348 205.859 171.692 206.025 171.068C206.167 170.535 206.555 170.078 206.62 169.53C206.673 169.083 206.503 168.643 206.335 168.224C205.863 167.042 205.39 165.86 204.917 164.677C204.683 164.093 204.445 163.473 204.538 162.85C204.721 161.637 206.034 160.967 207.215 160.633ZM166.633 115.881C167.792 115.665 168.789 114.743 169.096 113.605C169.543 111.944 168.597 110.26 167.689 108.799C166.201 106.405 162.885 100.701 161.098 99.0744C159.311 97.4477 146.921 102.272 142.504 104.247C142.281 104.346 142.046 104.458 141.917 104.665C141.787 104.873 139.899 106.919 141.668 108.247C143.437 109.576 143.819 109.203 144.9 108.784C145.981 108.366 146.836 107.519 147.597 106.644C148.246 105.897 149.387 105.849 150.365 106.003C151.343 106.157 152.348 106.453 153.303 106.19C154.297 105.916 155.378 106.357 156.133 107.06C156.888 107.763 157.379 108.696 157.856 109.611C158.255 110.374 159.451 110.133 160.088 109.553C160.726 108.974 161.211 108.146 162.038 107.905C163.221 107.56 164.41 108.707 164.605 109.924C164.883 111.654 163.55 113.478 161.818 113.739C160.814 113.891 159.481 113.746 159.094 114.684C158.901 115.151 159.076 115.69 159.332 116.124C159.793 116.904 160.772 117.558 161.571 117.132C162.71 116.525 162.53 114.277 163.818 114.21C164.956 114.15 165.513 116.09 166.633 115.881ZM195.702 115.183C196.226 114.792 196.769 114.353 197.42 114.297C198.253 114.225 199.003 114.809 199.523 115.462C200.044 116.115 200.441 116.878 201.078 117.419C201.726 117.97 202.56 118.24 203.371 118.496C204.719 118.923 206.067 119.35 207.415 119.777C201.145 112.158 193.361 105.552 184.151 102.012C183.374 101.714 182.571 101.434 181.739 101.431C180.907 101.428 180.032 101.747 179.562 102.434C178.847 103.479 179.435 105.101 180.608 105.58C179.819 105.803 179.521 106.892 179.928 107.603C180.335 108.315 181.22 108.64 182.039 108.609C182.858 108.578 183.633 108.252 184.388 107.932C185.792 107.336 187.196 106.74 188.6 106.144C189.482 105.77 190.507 106.122 191.323 106.625C192.139 107.128 192.876 107.787 193.782 108.101C195.685 108.758 196.632 111.317 195.618 113.055C195.069 111.941 193.976 111.112 192.756 110.884C191.535 110.656 190.217 111.035 189.303 111.875C188.562 112.557 187.443 112.645 186.452 112.473C185.46 112.3 184.516 111.906 183.521 111.753C182.527 111.599 181.404 111.734 180.704 112.457C180.004 113.18 180.037 114.596 180.944 115.034C182 115.543 183.117 114.497 184.261 114.24C185.35 113.996 186.465 114.497 187.404 115.1C188.342 115.703 189.233 116.434 190.308 116.733C192.176 117.251 194.149 116.343 195.702 115.183ZM205.347 178.777C202.95 178.803 200.553 178.83 198.155 178.856C197.822 178.859 197.36 179.014 197.438 179.338C198.337 183.035 198.659 186.871 198.389 190.665C198.363 191.034 198.961 190.974 199.265 190.762C202.087 188.796 204.633 186.434 206.805 183.768C207.198 183.285 207.595 182.753 207.644 182.133C207.72 181.158 206.939 180.36 206.463 179.506C206.331 179.27 206.207 179.007 205.97 178.877C205.784 178.775 205.56 178.775 205.347 178.777ZM190.946 143.55C189.601 144.213 189.764 146.247 188.779 147.376C188.561 147.627 188.269 147.868 188.26 148.2C188.256 148.366 188.326 148.523 188.395 148.673C188.609 149.144 188.823 149.615 189.038 150.086C189.206 150.455 189.538 150.897 189.914 150.744C191.46 150.114 193.151 149.842 194.817 149.954C195.297 149.986 195.807 150.044 196.233 149.822C196.609 149.625 196.848 149.247 197.069 148.885C198.307 146.859 199.542 144.832 200.775 142.803C200.871 142.644 200.97 142.473 200.96 142.288C200.95 142.092 200.818 141.925 200.681 141.784C199.295 140.352 196.72 140.329 195.308 141.736C194.829 142.214 194.458 142.836 193.845 143.123C192.953 143.541 191.83 143.114 190.946 143.55ZM167.745 103.076C167.529 102.659 167.331 102.161 167.527 101.734C167.735 101.279 168.289 101.118 168.778 101.008C170.509 100.617 172.239 100.226 173.97 99.8348C174.037 99.552 173.669 99.3821 173.383 99.3309C169.536 98.642 165.612 98.3813 161.707 98.5551C164.602 102.275 167.251 106.185 169.632 110.252C170.399 109.464 171.641 109.399 172.578 108.822C173.76 108.093 174.389 106.591 175.69 106.105C176.329 105.866 177.153 105.843 177.486 105.248C176.639 104.939 175.793 104.63 174.947 104.321C173.918 103.946 172.814 103.564 171.748 103.817C170.818 104.038 169.907 104.732 169.002 104.423C168.406 104.22 168.034 103.636 167.745 103.076ZM188.876 174.922C189.093 176.341 189.31 177.76 189.527 179.179C189.752 174.913 189.718 170.634 189.426 166.372C189.416 166.22 189.4 166.057 189.299 165.944C189.175 165.804 188.966 165.787 188.779 165.781C183.545 165.601 178.312 165.421 173.078 165.241C172.919 165.235 172.745 165.235 172.621 165.335C172.472 165.455 172.454 165.671 172.452 165.862C172.444 166.716 172.532 167.571 172.713 168.406C176.264 167.797 179.816 167.187 183.368 166.578C183.915 166.484 184.488 166.392 185.015 166.566C185.45 166.71 185.809 167.024 186.121 167.36C187.972 169.361 188.464 172.228 188.876 174.922ZM155.896 198.816C155.776 197.345 155.152 195.944 154.281 194.752C151.878 196.859 149.309 198.774 146.604 200.476C146.397 200.606 146.207 200.959 146.441 201.028C148.715 201.699 150.989 202.37 153.263 203.041C153.72 203.175 154.289 203.281 154.607 202.927C155.595 201.829 156.015 200.288 155.896 198.816ZM196.247 192.815C196.529 192.607 196.817 192.393 197.009 192.1C197.263 191.712 197.321 191.232 197.363 190.771C197.686 187.222 197.45 183.632 196.79 180.13C196.713 179.723 196.624 179.301 196.375 178.969C196.127 178.638 195.671 178.423 195.287 178.581C194.774 178.791 194.687 179.467 194.678 180.021C194.608 184.411 194.537 188.8 194.467 193.189C194.463 193.451 194.544 193.805 194.805 193.801C194.907 193.8 194.997 193.737 195.079 193.677C195.468 193.389 195.857 193.102 196.247 192.815ZM200.83 138.364C201.103 138.849 201.584 139.173 202.048 139.479C202.42 139.725 202.859 139.284 203.083 138.898C204.58 136.324 205.918 133.661 207.254 130.999C207.06 130.815 206.745 130.912 206.499 131.02C205.618 131.406 204.736 131.793 203.855 132.179C203.241 132.448 202.594 132.745 202.223 133.303C201.517 134.365 202.014 136.061 201.008 136.844C200.569 137.186 200.557 137.88 200.83 138.364ZM191.213 159.839C191.123 159.606 191.022 159.364 190.826 159.209C190.631 159.053 190.31 159.027 190.151 159.219C188.726 160.933 187.302 162.647 185.877 164.361C185.742 164.524 185.668 164.856 185.879 164.871C187.17 164.962 188.468 164.755 189.757 164.864C191.046 164.974 192.409 165.487 193.053 166.608C192.677 164.296 192.059 162.023 191.213 159.839ZM211.921 134.727C212.625 133.909 213.328 133.091 214.031 132.274C214.167 132.115 214.105 131.874 214.035 131.677C213.341 129.724 212.641 127.758 211.585 125.976C211.54 125.9 211.487 125.819 211.403 125.792C211.243 125.742 211.107 125.914 211.027 126.061C210.345 127.313 209.664 128.565 208.983 129.817C208.784 130.182 209.014 130.65 209.344 130.902C209.673 131.155 210.086 131.273 210.442 131.487C211.099 131.881 211.535 132.62 211.564 133.385C211.583 133.871 211.504 134.478 211.921 134.727ZM191.235 156.106C192.527 154.662 193.771 153.177 194.966 151.653C195.047 151.55 195.131 151.438 195.135 151.307C195.145 150.959 194.658 150.869 194.312 150.906C192.952 151.053 191.603 151.303 190.281 151.655C190.117 151.699 189.932 151.762 189.868 151.919C189.819 152.038 189.857 152.173 189.896 152.296C190.301 153.58 190.748 154.85 191.235 156.106ZM190.538 187.577C190.464 187.395 190.268 187.299 190.084 187.233C189.667 187.086 189.223 187.016 188.781 187.029C188.563 187.036 188.34 187.062 188.133 186.996C187.925 186.93 187.736 186.739 187.76 186.523C188.442 186.339 189.177 186.36 189.847 186.582C190.146 186.681 190.34 186.185 190.135 185.948C189.929 185.71 189.573 185.695 189.259 185.698C188.739 185.703 188.22 185.708 187.701 185.713C187.55 185.714 187.474 185.504 187.545 185.371C187.617 185.238 187.77 185.174 187.915 185.13C188.44 184.97 189.005 184.944 189.542 185.055C189.798 185.108 189.977 184.747 189.863 184.512C189.75 184.276 189.481 184.164 189.232 184.085C188.507 183.857 187.744 183.748 186.984 183.764C187.171 184.988 187.372 186.209 187.587 187.427C187.643 187.743 187.708 188.075 187.918 188.316C188.615 187.895 189.483 187.767 190.272 187.97C190.461 188.018 190.611 187.758 190.538 187.577ZM193.443 209.474C192.966 209.423 192.488 209.388 192.009 209.371C191.878 209.367 191.721 209.377 191.656 209.491C191.617 209.559 191.625 209.643 191.635 209.72C191.706 210.294 191.777 210.868 191.848 211.442C191.876 211.675 191.995 211.98 192.226 211.94C192.987 211.806 193.774 211.823 194.528 211.992C194.736 212.038 194.944 211.875 195.022 211.677C195.101 211.48 195.083 211.259 195.064 211.047C195.031 210.684 194.99 210.299 194.766 210.012C194.466 209.625 193.93 209.526 193.443 209.474ZM193.15 215.383C192.969 215.351 192.753 215.329 192.627 215.464C192.524 215.573 192.526 215.742 192.535 215.892C192.568 216.466 192.602 217.039 192.635 217.612C192.645 217.791 192.671 217.997 192.821 218.095C192.928 218.165 193.066 218.156 193.193 218.144C193.588 218.109 193.982 218.074 194.376 218.038C194.598 218.018 194.835 217.992 195.006 217.849C195.177 217.706 195.228 217.402 195.047 217.272C194.951 217.202 194.822 217.202 194.703 217.213C194.35 217.247 194.001 217.358 193.646 217.332C193.292 217.305 192.911 217.082 192.87 216.729C193.762 216.743 194.656 216.647 195.525 216.443C195.625 215.985 195.03 215.719 194.568 215.636C194.095 215.552 193.623 215.468 193.15 215.383ZM190.931 201.678C191.111 201.586 191.322 201.587 191.524 201.591C192.08 201.599 192.636 201.608 193.192 201.616C193.481 201.621 193.576 201.174 193.382 200.96C193.187 200.746 192.868 200.715 192.579 200.698C191.954 200.662 191.328 200.625 190.702 200.589C190.621 200.584 190.534 200.58 190.462 200.618C190.296 200.704 190.298 200.938 190.324 201.123C190.393 201.617 190.463 202.111 190.532 202.605C190.54 202.663 190.55 202.724 190.591 202.766C190.64 202.816 190.718 202.821 190.788 202.823C191.559 202.841 192.33 202.86 193.101 202.879C193.285 202.883 193.519 202.853 193.57 202.676C193.638 202.435 193.295 202.305 193.045 202.292C192.259 202.253 191.473 202.214 190.688 202.175C190.617 201.986 190.751 201.769 190.931 201.678ZM209.66 178.134C208.928 178.25 208.196 178.366 207.464 178.483C207.376 178.497 207.283 178.513 207.215 178.571C207.037 178.726 207.167 179.015 207.305 179.206C207.587 179.599 207.869 179.991 208.151 180.383C208.207 180.461 208.267 180.542 208.356 180.576C208.558 180.653 208.751 180.454 208.876 180.277C209.278 179.711 209.679 179.145 210.08 178.579C210.131 178.507 210.183 178.429 210.177 178.342C210.163 178.132 209.868 178.101 209.66 178.134ZM191.175 203.373C191.015 203.356 190.828 203.348 190.721 203.468C190.641 203.558 190.634 203.69 190.644 203.809C190.669 204.116 190.778 204.416 190.956 204.668C191.68 204.663 192.405 204.657 193.13 204.652C193.442 204.649 193.83 204.594 193.927 204.298C193.997 204.087 193.86 203.851 193.67 203.735C193.48 203.618 193.25 203.592 193.028 203.568C192.411 203.503 191.793 203.438 191.175 203.373ZM190.497 177.119C190.557 177.635 191.059 177.965 191.511 178.223C192.231 178.633 192.951 179.043 193.671 179.453C193.847 179.023 193.506 178.566 193.172 178.243C192.561 177.65 191.891 177.119 191.174 176.658C191.097 176.609 191.016 176.559 190.925 176.548C190.653 176.515 190.465 176.847 190.497 177.119ZM187.778 175.731C187.846 175.731 187.916 175.73 187.982 175.711C188.273 175.629 188.351 175.208 188.178 174.959C188.005 174.711 187.681 174.614 187.378 174.599C187.076 174.583 186.77 174.629 186.47 174.589C186.065 174.534 185.577 174.347 185.301 174.649C185.065 174.907 185.218 175.356 185.511 175.546C185.805 175.735 186.176 175.74 186.526 175.738C186.943 175.736 187.361 175.733 187.778 175.731ZM188.227 179.019C188.611 178.933 188.666 178.349 188.4 178.059C188.135 177.769 187.711 177.7 187.32 177.648C186.909 177.593 186.466 177.544 186.099 177.738C185.733 177.933 185.53 178.478 185.821 178.774C186.216 179.176 186.901 178.712 187.453 178.829C187.716 178.885 187.964 179.079 188.227 179.019ZM192.727 200.065C192.843 200.069 192.968 200.071 193.066 200.01C193.177 199.941 193.231 199.805 193.231 199.675C193.232 199.371 192.978 199.114 192.691 199.013C192.404 198.912 192.091 198.933 191.788 198.955C191.403 198.984 191.017 199.012 190.631 199.04C190.419 199.056 190.172 199.092 190.069 199.278C189.964 199.467 190.08 199.718 190.262 199.834C190.444 199.95 190.671 199.967 190.886 199.979C191.499 200.015 192.113 200.044 192.727 200.065ZM191.609 207.593C192.43 207.559 193.25 207.525 194.071 207.492C194.149 207.489 194.229 207.485 194.298 207.449C194.501 207.343 194.474 207.016 194.302 206.864C194.129 206.713 193.883 206.688 193.654 206.671C193.123 206.631 192.592 206.591 192.061 206.551C191.767 206.529 191.432 206.522 191.226 206.733C190.945 207.021 191.207 207.609 191.609 207.593ZM194.855 213.514C195.179 213.51 195.254 212.994 195.015 212.775C194.776 212.555 194.417 212.555 194.093 212.554C193.457 212.551 192.822 212.495 192.196 212.388C191.89 212.586 191.982 213.099 192.276 213.315C192.57 213.531 192.963 213.536 193.328 213.531C193.837 213.525 194.346 213.52 194.855 213.514ZM191.613 176.095C192.128 176.458 192.644 176.821 193.16 177.184C193.356 177.322 193.703 177.415 193.771 177.185C193.039 176.134 192.077 175.244 190.973 174.596C190.914 174.562 190.852 174.527 190.784 174.526C190.551 174.524 190.511 174.871 190.608 175.083C190.808 175.52 191.219 175.818 191.613 176.095ZM194.596 174.693C194.617 175.254 194.638 175.816 194.658 176.377C194.671 176.715 194.692 177.077 194.897 177.346C195.103 177.614 195.567 177.706 195.768 177.434C195.922 177.227 195.852 176.937 195.773 176.691C195.475 175.753 195.155 174.822 194.813 173.899C194.593 174.08 194.585 174.408 194.596 174.693ZM193.276 175.241C193.37 175.318 193.488 175.4 193.602 175.359C193.735 175.311 193.761 175.132 193.734 174.992C193.637 174.487 193.191 174.134 192.777 173.829C192.219 173.419 191.661 173.009 191.103 172.599C190.93 172.472 190.678 172.7 190.702 172.914C190.726 173.128 190.904 173.287 191.07 173.424C191.806 174.029 192.541 174.635 193.276 175.241ZM191.622 205.149C191.427 205.137 191.213 205.13 191.058 205.251C190.784 205.465 190.898 205.92 191.138 206.172C192.001 205.88 192.96 205.883 193.821 206.181C194.113 206.282 194.32 205.805 194.132 205.559C193.943 205.314 193.594 205.274 193.285 205.255C192.731 205.219 192.177 205.184 191.622 205.149ZM191.685 196.519C191.243 196.476 190.801 196.432 190.359 196.388C189.954 196.348 189.401 196.417 189.351 196.821C189.309 197.165 189.723 197.402 190.069 197.379C190.415 197.357 190.737 197.183 191.083 197.157C191.648 197.114 192.297 197.449 192.738 197.092C192.629 196.679 192.11 196.561 191.685 196.519ZM184.544 169.621C184.454 169.626 184.36 169.634 184.284 169.682C184.088 169.806 184.131 170.128 184.307 170.28C184.482 170.432 184.728 170.461 184.958 170.49C185.731 170.585 186.498 170.736 187.249 170.943C187.468 170.571 187.03 170.153 186.631 169.986C185.974 169.711 185.255 169.585 184.544 169.621ZM190.538 189.475C190.829 189.332 190.895 188.796 190.575 188.743C189.727 188.602 188.854 188.617 188.011 188.786C187.729 189.052 188.046 189.555 188.425 189.632C188.805 189.71 189.191 189.554 189.578 189.542C189.902 189.532 190.248 189.618 190.538 189.475ZM193.636 182.494C193.586 182.341 193.458 182.229 193.335 182.125C192.736 181.62 192.137 181.116 191.538 180.611C191.375 180.473 191.188 180.326 190.974 180.338C190.76 180.35 190.573 180.628 190.72 180.784C191.442 181.552 192.261 182.227 193.153 182.789C193.246 182.848 193.352 182.907 193.459 182.884C193.616 182.851 193.686 182.647 193.636 182.494ZM193.416 173.153C193.492 173.248 193.663 173.186 193.708 173.072C193.754 172.959 193.714 172.83 193.668 172.717C193.228 171.631 192.28 170.846 191.368 170.109C191.137 169.922 190.761 169.748 190.584 169.987C191.581 170.994 192.526 172.051 193.416 173.153ZM195.381 214.806C195.399 214.566 195.221 214.345 195.005 214.239C194.788 214.132 194.54 214.116 194.3 214.101C193.88 214.076 193.46 214.05 193.04 214.025C192.75 214.008 192.375 214.046 192.296 214.326C192.231 214.553 192.439 214.781 192.668 214.842C192.896 214.904 193.137 214.851 193.373 214.83C193.887 214.784 194.413 214.892 194.868 215.135C195.08 215.249 195.362 215.046 195.381 214.806ZM184.601 171.523C184.522 171.726 184.608 171.98 184.795 172.092C184.916 172.164 185.062 172.178 185.202 172.19C186.012 172.259 186.822 172.328 187.632 172.398C187.72 172.196 187.609 171.951 187.433 171.818C187.258 171.684 187.034 171.635 186.818 171.59C186.255 171.473 185.692 171.355 185.129 171.237C184.916 171.193 184.68 171.32 184.601 171.523ZM191.244 190.718C191.345 190.537 191.22 190.298 191.036 190.202C190.853 190.106 190.635 190.114 190.428 190.125C189.771 190.158 189.114 190.191 188.456 190.224C188.208 190.375 188.289 190.792 188.532 190.951C188.775 191.11 189.089 191.089 189.379 191.062C189.835 191.02 190.291 190.978 190.748 190.936C190.935 190.918 191.152 190.883 191.244 190.718ZM190.461 168.094C190.482 168.234 190.589 168.345 190.69 168.444C191.531 169.273 192.371 170.101 193.211 170.929C193.36 171.076 193.601 171.228 193.755 171.086C193.92 170.933 193.753 170.666 193.59 170.512C192.676 169.646 191.763 168.78 190.85 167.914C190.804 167.87 190.755 167.825 190.693 167.813C190.553 167.786 190.439 167.953 190.461 168.094ZM190.83 183.057C190.801 183.03 190.771 183.002 190.732 182.995C190.692 182.989 190.648 183.01 190.629 183.046C190.492 183.682 191.058 184.233 191.568 184.638C192.235 185.167 192.902 185.696 193.568 186.225C193.826 186.091 193.632 185.701 193.421 185.502C192.558 184.687 191.694 183.872 190.83 183.057ZM187.861 173.889C188.005 173.761 187.952 173.514 187.822 173.372C187.595 173.123 187.227 173.077 186.892 173.047C186.51 173.013 186.128 172.979 185.746 172.945C185.471 172.92 185.122 172.938 185.016 173.193C184.937 173.384 185.06 173.61 185.238 173.717C185.415 173.823 185.63 173.84 185.836 173.853C186.385 173.89 186.934 173.927 187.484 173.964C187.615 173.973 187.762 173.977 187.861 173.889ZM194.555 208.386C194.393 208.19 194.108 208.163 193.855 208.151C193.048 208.112 192.241 208.074 191.434 208.035C191.179 208.231 191.343 208.679 191.636 208.809C191.93 208.939 192.268 208.865 192.586 208.822C193.166 208.744 193.76 208.776 194.327 208.916C194.573 208.977 194.716 208.582 194.555 208.386ZM188.951 181.361C188.743 181.213 188.482 181.165 188.231 181.121C187.92 181.066 187.609 181.011 187.298 180.956C186.946 180.894 186.464 180.908 186.374 181.255C186.321 181.46 186.463 181.674 186.648 181.776C186.833 181.878 187.052 181.893 187.263 181.906C187.909 181.945 188.556 181.985 189.202 182.025C189.297 181.788 189.159 181.509 188.951 181.361ZM188.43 176.711C188.33 176.486 188.068 176.375 187.823 176.357C187.577 176.338 187.331 176.39 187.085 176.389C186.795 176.387 186.508 176.312 186.218 176.313C185.927 176.314 185.61 176.415 185.466 176.667C185.478 176.926 185.808 177.021 186.066 177.045C186.75 177.11 187.435 177.174 188.119 177.239C188.364 177.262 188.53 176.937 188.43 176.711ZM186.43 179.431C186.142 179.41 186.027 179.854 186.215 180.073C186.403 180.291 186.721 180.328 187.008 180.35C187.61 180.396 188.212 180.441 188.815 180.487C188.956 180.23 188.799 179.892 188.553 179.733C188.307 179.574 188.001 179.548 187.709 179.526C187.282 179.494 186.856 179.463 186.43 179.431ZM203.78 142.34C204.218 142.22 204.357 141.686 204.526 141.264C204.096 141.041 203.619 140.812 203.147 140.918C202.674 141.025 202.322 141.657 202.654 142.011C202.768 142.132 202.931 142.191 203.088 142.246C203.312 142.324 203.552 142.402 203.78 142.34ZM191.144 178.87C190.935 178.766 190.582 178.744 190.566 178.977C190.558 179.089 190.65 179.18 190.736 179.252C191.555 179.948 192.46 180.544 193.422 181.022C193.557 181.039 193.659 180.877 193.635 180.744C193.611 180.61 193.507 180.507 193.407 180.415C192.73 179.798 191.966 179.276 191.144 178.87ZM190.659 166.71C191.321 167.436 192.01 168.138 192.725 168.814C192.864 168.945 193.025 169.083 193.216 169.077C193.407 169.071 193.574 168.817 193.437 168.684C192.629 167.902 191.822 167.12 191.015 166.338C190.887 166.214 190.686 166.085 190.549 166.199C190.399 166.325 190.527 166.565 190.659 166.71ZM193.5 183.857C193.408 183.678 193.241 183.551 193.08 183.431C192.403 182.923 191.725 182.416 191.047 181.908C190.953 181.838 190.847 181.764 190.731 181.776C190.614 181.787 190.517 181.94 190.597 182.025C191.448 182.924 192.401 183.726 193.432 184.411C193.587 184.282 193.592 184.036 193.5 183.857ZM189.715 195.825C190.33 195.836 190.944 195.846 191.558 195.857C191.829 195.861 192.121 195.859 192.338 195.697C192.374 195.493 192.212 195.296 192.019 195.219C191.826 195.143 191.611 195.158 191.404 195.175C190.846 195.22 190.287 195.265 189.729 195.309C189.527 195.326 189.285 195.37 189.211 195.558C189.236 195.766 189.507 195.822 189.715 195.825ZM189.452 183.362C189.631 183.268 189.609 182.981 189.459 182.845C189.309 182.709 189.092 182.683 188.891 182.664C188.206 182.598 187.521 182.532 186.836 182.467C186.674 182.556 186.693 182.815 186.826 182.942C186.959 183.07 187.155 183.102 187.338 183.127C187.947 183.212 188.555 183.297 189.164 183.382C189.261 183.395 189.365 183.408 189.452 183.362ZM192.708 197.875C192.59 197.799 192.44 197.801 192.3 197.805C191.535 197.829 190.77 197.852 190.004 197.876C189.783 197.883 189.739 198.238 189.907 198.382C190.076 198.527 190.323 198.514 190.544 198.493C191.218 198.43 191.891 198.366 192.565 198.303C192.642 198.296 192.724 198.286 192.78 198.233C192.882 198.137 192.826 197.951 192.708 197.875ZM191.767 185.511C191.547 185.321 191.196 185.134 191 185.349C191.727 186.148 192.548 186.861 193.441 187.469C193.687 187.423 193.543 187.043 193.354 186.88C192.825 186.423 192.296 185.967 191.767 185.511ZM184.026 168.457C183.782 168.588 183.813 169.021 184.074 169.116C184.813 168.95 185.594 168.975 186.321 169.188C186.202 168.823 185.853 168.572 185.484 168.466C185.115 168.36 184.724 168.377 184.341 168.395C184.233 168.4 184.121 168.406 184.026 168.457ZM193.129 188.464C193.306 188.584 193.633 188.644 193.657 188.431C192.981 187.761 192.225 187.172 191.41 186.68C191.265 186.774 191.249 186.993 191.33 187.147C191.41 187.3 191.56 187.404 191.703 187.501C192.179 187.822 192.654 188.143 193.129 188.464ZM192.134 189.253C192.537 189.564 192.975 189.829 193.438 190.04C193.58 189.95 193.597 189.738 193.521 189.588C193.444 189.438 193.3 189.336 193.162 189.24C192.723 188.936 192.284 188.631 191.845 188.327C191.556 188.564 191.838 189.025 192.134 189.253ZM192.858 218.966C192.65 219.192 192.652 219.618 192.924 219.761C193.406 219.552 193.858 219.273 194.26 218.934C194.178 218.734 193.922 218.679 193.705 218.678C193.398 218.677 193.066 218.74 192.858 218.966ZM193.526 193.993C193.375 193.691 193.148 193.428 192.871 193.235C192.66 193.65 192.74 194.195 193.062 194.531C193.139 194.612 193.239 194.685 193.351 194.68C193.632 194.667 193.652 194.245 193.526 193.993ZM193.404 190.844C193.288 190.67 193.091 190.571 192.902 190.48C192.67 190.368 192.438 190.256 192.205 190.144C191.984 190.381 192.212 190.777 192.497 190.933C192.781 191.089 193.133 191.152 193.338 191.403C193.516 191.291 193.521 191.018 193.404 190.844ZM193.296 196.827C193.361 196.943 193.45 197.058 193.578 197.091C193.842 196.516 193.648 195.818 193.272 195.31C193.031 195.779 193.04 196.367 193.296 196.827ZM193.24 192.272C193.019 192.015 192.714 191.83 192.384 191.751C192.384 192.102 192.565 192.447 192.854 192.646C193.008 192.752 193.228 192.812 193.377 192.698C193.525 192.583 193.434 192.268 193.253 192.315M184.774 167.323C184.493 167.271 184.195 167.313 183.938 167.44C184.232 167.655 184.641 167.701 184.975 167.557C184.945 167.453 184.871 167.362 184.776 167.31" fill="#00160A"/>
<path fill-rule="evenodd" clip-rule="evenodd" d="M169.31 191.475C172.97 189.892 176.615 191.668 178.2 195.494C179.578 198.822 177.814 201.882 174.181 203.645C172.815 204.299 170.584 204.239 169.214 203.539C168.047 202.967 166.494 201.37 165.68 200.128C165.303 199.554 165.122 198.591 165.12 197.231L165.12 197.027C165.148 194.527 166.554 192.397 168.9 191.607L169.01 191.571L169.038 191.552C169.061 191.538 169.086 191.527 169.113 191.517L169.155 191.504L169.201 191.494L169.292 191.484L169.31 191.475ZM170.677 202.111L169.538 202.678L169.625 202.719C170.437 203.091 171.303 203.266 172.164 203.227L172.212 203.224L172.156 203.199C171.656 202.971 171.172 202.612 170.706 202.14L170.677 202.111ZM168.911 199.587L168.861 199.489L168.751 199.537C168.32 199.727 167.882 199.923 167.432 200.125L166.922 200.356C166.999 200.472 167.081 200.587 167.168 200.703C167.558 201.231 168.019 201.693 168.533 202.073L168.644 202.154L169.474 201.748L170.095 201.443L170.073 201.415C169.641 200.862 169.248 200.234 168.911 199.587ZM172.789 201.059L171.43 201.736L171.471 201.775C172.109 202.374 172.759 202.685 173.424 202.667L173.494 202.664L173.461 202.576C173.29 202.14 173.097 201.699 172.877 201.239L172.789 201.059ZM167.756 196.683L167.52 196.788C167.182 196.937 166.842 197.084 166.5 197.228L165.964 197.451L165.968 197.543C166.006 198.264 166.179 198.943 166.492 199.598L166.503 199.621L166.579 199.585C167.067 199.358 167.568 199.131 168.087 198.901L168.491 198.723L168.441 198.612C168.166 197.996 167.952 197.414 167.799 196.849L167.756 196.683ZM175.009 199.953L173.526 200.692L173.533 200.706C173.795 201.246 174.024 201.765 174.226 202.278L174.287 202.435L174.291 202.433C174.836 202.077 175.073 201.253 175.016 200.078L175.009 199.953ZM171.358 198.416L171.252 198.46C170.762 198.665 170.265 198.877 169.756 199.098L169.612 199.16L169.678 199.284C170.027 199.93 170.382 200.496 170.764 200.987L170.836 201.079L171.765 200.621L172.405 200.304L172.304 200.113C172.12 199.768 171.918 199.403 171.661 198.95L171.358 198.416ZM177.743 198.592L175.691 199.613L175.704 199.723C175.726 199.912 175.745 200.103 175.761 200.297L175.784 200.588L175.803 200.867C175.826 201.139 175.816 201.397 175.771 201.639L175.763 201.68L175.836 201.617C176.836 200.751 177.496 199.722 177.736 198.626L177.743 198.592ZM174.523 197.371L174.485 197.243L174.134 197.368L173.159 197.706L172.984 197.769C172.804 197.833 172.641 197.893 172.49 197.952L172.314 198.021L172.13 198.096L172.342 198.467C172.578 198.882 172.781 199.249 172.968 199.6L173.145 199.936L174.338 199.341L174.906 199.056L174.905 199.048C174.818 198.504 174.686 197.932 174.523 197.371ZM169.95 195.77L169.909 195.683L169.881 195.697C169.534 195.865 169.186 196.031 168.837 196.193L168.489 196.353L168.512 196.453C168.648 197.03 168.861 197.623 169.142 198.226L169.214 198.377L169.227 198.403L169.274 198.383C169.623 198.234 169.979 198.082 170.347 197.928L170.939 197.681L170.897 197.608C170.56 197.003 170.245 196.392 169.95 195.77ZM167.86 193.094L167.821 193.126C166.839 193.915 166.183 195.106 166.015 196.412L166.002 196.524L165.996 196.578L166.167 196.507C166.524 196.357 166.88 196.203 167.235 196.047L167.597 195.885L167.589 195.829C167.457 194.86 167.536 193.955 167.853 193.113L167.86 193.094ZM172.936 194.123L172.486 194.367C171.978 194.64 171.465 194.907 170.95 195.168L170.647 195.32L170.681 195.392C170.955 195.965 171.248 196.533 171.562 197.101L171.71 197.363L171.986 197.251C172.162 197.18 172.349 197.11 172.56 197.034L172.904 196.912L173.709 196.634C173.854 196.584 173.984 196.538 174.105 196.495L174.224 196.452L174.2 196.384C174.08 196.06 173.959 195.776 173.852 195.559L173.82 195.497C173.597 195.069 173.334 194.655 173.023 194.239L172.936 194.123ZM177.398 195.737L177.343 195.783C176.788 196.232 176.118 196.597 175.262 196.947L175.191 196.976L175.2 197.009C175.332 197.504 175.444 198.012 175.534 198.532L175.566 198.723L176.567 198.219L177.834 197.577L177.832 197.518C177.808 196.948 177.673 196.37 177.422 195.792L177.398 195.737ZM168.795 193.027L168.779 193.059C168.416 193.809 168.283 194.63 168.359 195.516L168.361 195.538L168.492 195.478C168.782 195.343 169.071 195.207 169.359 195.068L169.579 194.961L169.54 194.871C169.315 194.359 169.101 193.836 168.898 193.301L168.795 193.027ZM169.47 192.3L169.406 192.306L169.414 192.328C169.681 193.084 169.97 193.812 170.283 194.525L170.316 194.598L170.613 194.449C171.136 194.184 171.656 193.913 172.172 193.635L172.424 193.498L172.409 193.481C172.338 193.399 172.264 193.316 172.188 193.232L172.072 193.105C171.386 192.379 170.749 192.194 169.57 192.291L169.47 192.3ZM175.27 192.789L174.818 193.057C174.513 193.236 174.207 193.412 173.9 193.587L173.685 193.707L173.714 193.746C174.141 194.318 174.473 194.891 174.705 195.474L174.756 195.609C174.806 195.743 174.853 195.878 174.899 196.014L174.951 196.171L174.969 196.164C175.815 195.813 176.457 195.446 176.975 194.987L176.99 194.973L176.934 194.879C176.358 193.936 175.904 193.334 175.361 192.865L175.27 192.789ZM174.108 192.104C173.313 191.802 172.534 191.673 171.755 191.716L171.711 191.719L171.774 191.752C171.913 191.829 172.043 191.919 172.165 192.026L172.225 192.08C172.542 192.389 172.829 192.686 173.091 192.983L173.178 193.082L173.487 192.909C173.802 192.731 174.116 192.55 174.429 192.367L174.541 192.3L174.452 192.254C174.377 192.218 174.301 192.183 174.224 192.151L174.108 192.104Z" fill="#FFB61D"/>
<path fill-rule="evenodd" clip-rule="evenodd" d="M208.011 142.592C208.517 142.004 209.53 142.061 210.093 142.595C210.656 143.129 210.807 143.994 210.643 144.753C210.479 145.512 210.047 146.184 209.582 146.805C209.158 147.372 208.7 147.913 208.21 148.424C208.165 148.471 208.108 148.522 208.043 148.513C207.974 148.504 207.933 148.432 207.905 148.368C207.197 146.792 207.103 144.949 207.647 143.309C207.732 143.053 207.835 142.797 208.011 142.592ZM209.915 143.492C209.788 143.262 209.586 143.068 209.338 142.984C208.758 142.787 208.124 143.263 207.923 143.842C207.722 144.42 207.833 145.055 207.946 145.657C208.027 146.088 208.109 146.519 208.19 146.95C208.217 147.097 208.309 147.287 208.453 147.246C208.511 147.229 208.55 147.177 208.585 147.128C208.791 146.841 208.998 146.554 209.204 146.267C209.498 145.856 209.797 145.439 209.966 144.962C210.135 144.486 210.16 143.934 209.915 143.492L209.915 143.492Z" fill="#FFB61D"/>
<path fill-rule="evenodd" clip-rule="evenodd" d="M208.855 145.189C208.7 145.176 208.551 145.111 208.435 145.008C208.211 144.808 208.134 144.459 208.255 144.184C208.375 143.908 208.682 143.727 208.981 143.755C209.435 143.797 209.757 144.35 209.571 144.766C209.45 145.035 209.149 145.213 208.855 145.189Z" fill="#FFB61D"/>
<defs>
<clipPath id="clip0_4354_19632">
<rect width="50.4052" height="57.1769" fill="white" transform="translate(225 43.9994) rotate(-60)"/>
</clipPath>
</defs>
</svg>
