<svg width="109" height="106" viewBox="0 0 109 106" fill="none" xmlns="http://www.w3.org/2000/svg">
<path d="M24.0613 36.8364C23.907 36.6939 23.806 36.4936 23.7923 36.2666C23.3235 28.6465 20.3108 21.2758 15.3011 15.5167C14.9942 15.162 15.0331 14.6265 15.3832 14.3247C15.7377 14.0181 16.2685 14.0528 16.5753 14.4075C21.824 20.4497 24.9903 28.1764 25.4784 36.1626C25.5063 36.6258 25.151 37.03 24.6878 37.0576C24.4515 37.0716 24.2252 36.9877 24.0613 36.8364Z" fill="#3D50DF"/>
<path d="M36.4019 43.3732C36.1704 43.1595 36.0691 42.8338 36.1629 42.5097C37.8509 36.7916 38.2085 30.6665 37.1874 24.7864C37.1039 24.3253 37.4161 23.8904 37.8771 23.8071C38.3337 23.7286 38.7781 24.0407 38.8568 24.4973C39.9206 30.6311 39.546 37.0262 37.7842 42.9887C37.6537 43.4397 37.1808 43.6906 36.7298 43.5599C36.6029 43.5232 36.4887 43.4534 36.3971 43.3688L36.4019 43.3732Z" fill="#3D50DF"/>
<path d="M61.4673 39.9783C61.3853 39.9026 61.3167 39.8125 61.2662 39.7123C61.2202 39.6073 61.1976 39.5061 61.1883 39.3904C61.1793 39.1678 61.2635 38.9509 61.4148 38.787C61.5661 38.6231 61.7804 38.5264 61.9982 38.5131C62.2719 38.5069 62.5512 38.6398 62.7182 38.8653C62.7527 38.9151 62.7775 38.9559 62.7983 39.0108C62.8235 39.0608 62.8443 39.1157 62.851 39.1666C62.867 39.217 62.8785 39.2723 62.8807 39.3279C62.8896 39.5504 62.8059 39.7767 62.659 39.9357C62.5122 40.0948 62.2933 40.1963 62.0708 40.2051C61.9547 40.2051 61.8427 40.191 61.7436 40.1531C61.6402 40.12 61.5493 40.054 61.4673 39.9783Z" fill="#3D50DF"/>
<path d="M53.9001 47.42C54.2015 47.0644 54.7434 47.029 55.0903 47.3403C55.446 47.642 55.4817 48.1839 55.171 48.5398C54.8647 48.8909 54.3321 48.926 53.9759 48.615L53.9566 48.5972C53.6239 48.29 53.5982 47.7663 53.9001 47.42ZM55.4004 45.6981C55.7019 45.3425 56.2438 45.3071 56.5907 45.6184C56.942 45.9249 56.9821 46.462 56.6714 46.8179C56.3695 47.1642 55.828 47.2089 55.4763 46.8932L55.4618 46.8798C55.1243 46.5681 55.0941 46.0492 55.4004 45.6981ZM56.9008 43.9762C57.2071 43.6251 57.7442 43.5852 58.1003 43.8962C58.4516 44.2027 58.4918 44.7397 58.1762 45.0912C57.8699 45.4423 57.3328 45.4822 56.9811 45.1665L56.9667 45.1531C56.6291 44.8414 56.5989 44.3225 56.9008 43.9762ZM58.4012 42.2544C58.7075 41.9032 59.2445 41.8634 59.6007 42.1743C59.952 42.4808 59.9921 43.0178 59.6765 43.3693C59.3751 43.7249 58.8332 43.7603 58.4863 43.449L58.467 43.4312C58.1295 43.1195 58.1041 42.6051 58.4012 42.2544ZM59.9015 40.5325C60.203 40.1769 60.7401 40.137 61.0962 40.448C61.4475 40.7545 61.4877 41.2915 61.1721 41.643C60.8706 41.9986 60.3336 42.0384 59.9819 41.7227L59.9674 41.7093C59.6298 41.3977 59.5997 40.8788 59.8967 40.528L59.9015 40.5325Z" fill="#3D50DF"/>
<path d="M52.461 50.3236C52.379 50.2479 52.3104 50.1578 52.2599 50.0576C52.2188 49.9571 52.1913 49.8514 52.182 49.7356C52.1731 49.5131 52.2572 49.2962 52.4085 49.1323C52.4486 49.0889 52.4842 49.0503 52.5294 49.0207C52.5791 48.9862 52.6199 48.9614 52.6748 48.9406C52.7249 48.9154 52.7753 48.8995 52.8306 48.888C52.881 48.8721 52.9411 48.8651 52.9919 48.8584C53.437 48.8408 53.8565 49.2281 53.8744 49.6732C53.8718 49.7244 53.8696 49.7848 53.8578 49.8364C53.8507 49.8924 53.8344 49.9487 53.8177 49.9958C53.7966 50.0478 53.7755 50.0997 53.7495 50.1471C53.7236 50.1946 53.6928 50.2376 53.6527 50.281C53.5014 50.4449 53.2915 50.5368 53.0645 50.5504C52.8372 50.5548 52.6157 50.4753 52.4566 50.3284L52.461 50.3236Z" fill="#3D50DF"/>
<path d="M65.0769 73.9985C64.9804 73.9095 64.9014 73.7919 64.8494 73.6546C64.6969 73.2102 64.9283 72.7274 65.3726 72.5751C74.1287 69.5254 83.5948 68.658 92.762 70.0591C93.2246 70.129 93.5392 70.5623 93.4695 71.0248C93.3999 71.4873 92.9667 71.8016 92.5042 71.7317C83.6126 70.3707 74.4243 71.2179 65.9289 74.169C65.6221 74.2787 65.2983 74.194 65.0765 73.9892L65.0769 73.9985Z" fill="#3D50DF"/>
<path d="M79.8973 80.6549C79.8153 80.5792 79.7467 80.489 79.6962 80.3889C79.6551 80.2884 79.6276 80.1826 79.6231 80.0714C79.6138 79.9557 79.6327 79.8481 79.6705 79.7491C79.708 79.6408 79.7692 79.5455 79.8448 79.4636C79.9961 79.2997 80.2153 79.2074 80.4378 79.1986C80.4887 79.1919 80.5447 79.199 80.6007 79.2061C80.6522 79.218 80.7131 79.2295 80.7557 79.251C80.8076 79.2722 80.8596 79.2933 80.9071 79.3193C81.1497 79.4629 81.3044 79.7308 81.3155 80.0089C81.3178 80.0646 81.3108 80.1206 81.2989 80.1721C81.2919 80.2281 81.2755 80.2845 81.2589 80.3316C81.2377 80.3835 81.221 80.4306 81.1906 80.4829C81.1647 80.5304 81.1339 80.5734 81.0939 80.6167C80.9426 80.7806 80.7282 80.8773 80.5057 80.8862C80.3896 80.8861 80.2775 80.872 80.1785 80.8341C80.0795 80.7963 79.9793 80.7306 79.9021 80.6593L79.8973 80.6549Z" fill="#3D50DF"/>
<path d="M72.8632 80.4461C72.8353 79.9829 73.1954 79.5832 73.6586 79.5555C74.1267 79.5323 74.531 79.8878 74.5497 80.3514C74.5779 80.8239 74.213 81.2192 73.7542 81.242C73.5132 81.2516 73.2917 81.1721 73.1277 81.0207C72.9686 80.8738 72.8721 80.6687 72.8584 80.4417L72.8632 80.4461ZM75.1198 80.3242C75.087 79.8565 75.4519 79.4612 75.9152 79.4336C76.3784 79.4059 76.7828 79.7614 76.8062 80.2294C76.8297 80.6975 76.4696 81.0972 76.0108 81.12C75.7697 81.1296 75.5483 81.0501 75.3843 80.8988C75.2252 80.7518 75.1242 80.5515 75.1198 80.3242ZM77.367 80.2026C77.3388 79.73 77.6988 79.3304 78.1625 79.312C78.6302 79.2795 79.0256 79.6446 79.0535 80.1079C79.077 80.5759 78.7169 80.9756 78.2581 80.9984C78.0174 81.0173 77.7956 80.9286 77.6316 80.7772C77.4773 80.6347 77.3715 80.4299 77.3626 80.2074L77.367 80.2026Z" fill="#3D50DF"/>
<path d="M70.8852 81.1563C70.7212 81.0049 70.6243 80.7905 70.6154 80.568C70.6061 80.3361 70.6902 80.1192 70.8415 79.9553C70.8771 79.9168 70.9127 79.8782 70.9673 79.8482C71.0029 79.8096 71.0529 79.7844 71.1078 79.7637C71.1579 79.7385 71.2083 79.7225 71.2636 79.7111C71.314 79.6951 71.3741 79.6881 71.4297 79.6859C71.6986 79.6752 71.978 79.8081 72.1449 80.0337C72.1794 80.0834 72.2043 80.1242 72.2251 80.1791C72.2503 80.2292 72.2662 80.2796 72.2778 80.3349C72.2937 80.3853 72.3052 80.4406 72.3075 80.4962C72.3097 80.5519 72.3027 80.6079 72.2908 80.6594C72.2838 80.7154 72.2674 80.7718 72.2508 80.8189C72.2296 80.8708 72.2085 80.9227 72.1825 80.9702C72.1521 81.0225 72.1214 81.0655 72.0858 81.104C71.93 81.2727 71.7201 81.3646 71.4931 81.3783C71.2657 81.3827 71.0491 81.3077 70.8852 81.1563Z" fill="#3D50DF"/>
<path d="M67.0908 92.9199C66.9317 92.773 66.8304 92.5634 66.8166 92.3364C66.7931 91.8683 67.158 91.4731 67.6265 91.4592C74.5705 91.156 81.6243 92.4273 88.034 95.1219C88.4684 95.2997 88.6695 95.7979 88.4871 96.2277C88.3047 96.6575 87.8114 96.8628 87.3815 96.6802C81.2032 94.0832 74.4021 92.8576 67.7036 93.1464C67.4718 93.1556 67.2548 93.0713 67.0908 92.9199Z" fill="#3D50DF"/>
<path d="M42.2559 47.1437C42.5477 46.7793 43.084 46.7209 43.4531 47.0081C43.8134 47.3049 43.8717 47.8319 43.5847 48.2009C43.288 48.5609 42.761 48.619 42.3919 48.3318L42.3485 48.2917C42.0253 47.9934 41.9819 47.4889 42.2603 47.1389L42.2559 47.1437ZM43.6431 45.3799C43.9301 45.011 44.4613 44.9388 44.8304 45.226C45.1995 45.5132 45.2719 46.0444 44.9849 46.4133C44.6979 46.7823 44.1667 46.8544 43.7928 46.5627L43.7398 46.5138C43.4215 46.2199 43.3784 45.7247 43.6431 45.3799ZM45.0014 43.5894C45.2788 43.2115 45.8099 43.1394 46.1831 43.4125C46.5611 43.6901 46.6384 44.2257 46.3562 44.599C46.0788 44.9769 45.5477 45.049 45.1789 44.7711C45.1548 44.7488 45.1355 44.731 45.1114 44.7088C44.798 44.4194 44.7459 43.9338 45.0059 43.5846L45.0014 43.5894ZM46.3263 41.7769C46.5989 41.3946 47.1296 41.3132 47.5121 41.586C47.8946 41.8587 47.9807 42.3847 47.7037 42.7718C47.4312 43.1541 46.9004 43.2355 46.5179 42.9627C46.4938 42.9405 46.4697 42.9182 46.4456 42.8959C46.1321 42.6065 46.0805 42.1303 46.3356 41.7766L46.3263 41.7769ZM47.6227 39.9471C47.8904 39.5603 48.4208 39.4696 48.7984 39.7379C49.1853 40.0058 49.2808 40.5314 49.0127 40.9089C48.7401 41.2912 48.2146 41.3863 47.8325 41.1228C47.8035 41.0961 47.7746 41.0694 47.7457 41.0427C47.437 40.7578 47.3765 40.2911 47.6272 39.9422L47.6227 39.9471ZM48.8857 38.0953C49.1441 37.7089 49.6738 37.5997 50.0651 37.8628C50.4472 38.1262 50.5563 38.6466 50.2934 39.0378C50.0305 39.429 49.5053 39.5334 49.114 39.2703C49.0802 39.2392 49.0465 39.208 49.0127 39.1768C48.7137 38.9008 48.6487 38.439 48.8857 38.0953ZM50.1153 36.2216C50.3733 35.826 50.8933 35.7078 51.2891 35.9661C51.6849 36.2244 51.7941 36.7448 51.5404 37.1356C51.2916 37.5309 50.7668 37.6446 50.371 37.3863C50.3284 37.3648 50.2853 37.334 50.2516 37.3028C49.9574 37.0312 49.8972 36.5739 50.1201 36.2261L50.1153 36.2216ZM51.3207 34.3257C51.5647 33.9259 52.0847 33.8078 52.4846 34.052C52.8845 34.2962 53.0032 34.8255 52.7589 35.2159C52.5149 35.6157 51.9856 35.7342 51.595 35.4896C51.5565 35.454 51.509 35.428 51.4704 35.3924C51.1762 35.1208 51.1071 34.6731 51.33 34.3253L51.3207 34.3257ZM52.4884 32.4127C52.7275 32.0085 53.2516 31.8763 53.6515 32.1205C54.0558 32.3598 54.1835 32.8795 53.9395 33.2792C53.6959 33.6882 53.1807 33.8108 52.7764 33.5714C52.7241 33.541 52.6811 33.5102 52.6377 33.4701C52.3483 33.203 52.2703 32.7649 52.4839 32.4175L52.4884 32.4127ZM53.6271 30.4729C53.8614 30.0643 54.3762 29.9325 54.7801 30.1626C55.1845 30.4019 55.3211 30.9119 55.096 31.3202C54.8568 31.7244 54.3469 31.8607 53.9336 31.631C53.8813 31.6005 53.8287 31.5608 53.7853 31.5208C53.5007 31.2581 53.4231 30.8293 53.6271 30.4729ZM54.7283 28.5254C54.9578 28.1123 55.4722 27.9712 55.8851 28.1917C56.2983 28.4214 56.4397 28.9359 56.2147 29.3441C55.9851 29.7572 55.4755 29.9028 55.0579 29.6779C54.9963 29.6478 54.9432 29.5989 54.8998 29.5588C54.6153 29.2961 54.5425 28.8718 54.7283 28.5254ZM55.8054 26.5556C56.0208 26.1385 56.5301 25.9836 56.9477 26.2085C57.3606 26.429 57.5157 26.9383 57.2955 27.351C57.0752 27.7637 56.566 27.9186 56.1483 27.6937C56.0868 27.6636 56.0244 27.615 55.9762 27.5705C55.6965 27.3122 55.6148 26.8975 55.8006 26.5512L55.8054 26.5556Z" fill="#3D50DF"/>
<path d="M62.003 63.6072C60.5418 62.2582 59.5355 60.4453 59.2529 58.4969C58.7987 55.3991 60.2866 52.0942 62.8678 50.4595C65.5532 48.7603 69.253 48.9619 71.6587 50.9329C74.1308 52.9385 74.9471 56.7278 73.5359 59.5141C72.5419 61.4713 70.5548 62.7528 68.5931 62.7005C67.454 62.6667 66.2897 62.1185 65.4969 61.2259C64.7723 60.4141 64.412 59.4208 64.4975 58.4283C64.59 57.2637 65.4143 56.1677 66.5863 55.6336C67.667 55.1404 68.8313 55.2242 69.6879 55.8543C70.0655 56.1226 70.1476 56.6626 69.8702 57.0405C69.5928 57.4183 69.0621 57.4997 68.6841 57.2222C68.3254 56.9624 67.7998 56.9414 67.2846 57.1801C66.669 57.4599 66.2318 58.0205 66.1844 58.575C66.1404 59.0968 66.3434 59.6414 66.7566 60.1033C67.2478 60.655 67.9533 60.9938 68.6414 61.013C69.9618 61.0535 71.3229 60.1405 72.0288 58.7566C73.1003 56.6477 72.4704 53.7983 70.5926 52.2522C68.763 50.7505 65.8362 50.6019 63.7846 51.8952C61.7467 53.1833 60.5795 55.8021 60.9427 58.2534C61.2944 60.6495 63.0926 62.8722 65.4232 63.7828C65.8571 63.9513 66.072 64.4443 65.9037 64.8782C65.7354 65.3121 65.2425 65.5266 64.8085 65.3581C63.7706 64.9535 62.8269 64.3501 62.0215 63.6065L62.003 63.6072Z" fill="#3D50DF"/>
</svg>
