<svg width="78" height="76" viewBox="0 0 78 76" fill="none" xmlns="http://www.w3.org/2000/svg">
<path d="M24.3243 57.3693C23.5589 56.7303 22.2458 56.6811 21.7262 57.7063C18.7559 63.5346 15.9401 69.6297 13.5526 75.8301L17.6815 75.8301C19.6477 70.9779 21.6279 66.1257 23.7345 61.3227C24.9704 62.7692 25.8341 64.5528 26.782 66.1819C28.0179 68.2955 29.4785 70.2476 30.8478 72.2629C31.6483 73.4356 32.4277 74.6363 33.2001 75.8301L36.4092 75.8301C35.0258 73.6111 33.6144 71.4062 32.21 69.2294C29.7032 65.3533 27.9056 60.3817 24.3314 57.3693L24.3243 57.3693Z" fill="#3D50DF"/>
<path d="M19.9635 39.4772C19.2894 39.07 18.1799 39.1402 17.6462 39.7792C14.711 43.2691 13.1311 47.9879 11.193 52.0747C8.78447 57.1446 6.37593 62.2215 3.81992 67.2211C2.34531 70.1072 0.82856 72.9721 -0.69521 75.8301L3.66544 75.8301C4.62043 74.0254 5.57542 72.2138 6.51636 70.3951C8.99513 65.592 11.3405 60.7328 13.6648 55.8525C15.4975 52.0045 17.0564 47.2787 19.507 43.6553C31.7042 51.211 38.3822 63.998 46.0151 75.8301L49.2241 75.8301C41.2471 62.2847 33.6353 47.693 19.9705 39.4772L19.9635 39.4772Z" fill="#3D50DF"/>
<path d="M-33.7827 75.8301C-32.5678 73.9903 -31.3671 72.1506 -30.1804 70.2968C-21.3397 56.4915 -13.2082 42.1948 -3.73557 28.8038C0.491672 22.8281 5.32279 17.2035 9.27618 11.0522C10.498 9.14927 11.6566 6.81797 13.3279 5.27314C14.6129 4.08641 14.1916 4.27601 15.2449 5.13972C16.8248 6.43177 17.8641 8.29259 18.9806 9.96382C23.0674 16.0659 28.6218 20.8198 33.7829 25.974C39.6814 31.8654 44.8496 38.5012 49.9054 45.1089C55.1579 51.9694 60.319 58.879 65.6838 65.6552C68.3592 69.0398 71.0416 72.4174 73.6749 75.8301L77.3403 75.8301C75.2267 73.0283 73.1622 70.1844 71.0416 67.3897C65.7681 60.4309 60.5859 53.4159 55.4598 46.3518C50.5444 39.5756 45.5799 32.7993 40.0114 26.5357C34.3657 20.1878 27.4421 14.9073 22.7514 7.7519C20.2867 3.99513 16.4597 -2.66171 11.3266 1.13016C7.32406 4.08642 4.82423 9.90765 1.85393 13.84C-9.01611 28.2421 -18.4818 43.3885 -28.0036 58.6964C-31.5848 64.4615 -35.2222 70.1914 -39 75.8301L-33.7827 75.8301Z" fill="#3D50DF"/>
<path d="M47.7696 54.083C41.0777 43.7607 33.1288 34.6602 24.59 25.8405C22.4343 23.6146 19.794 20.0474 16.2128 21.8661C14.7663 22.5964 14.1905 24.1131 13.4321 25.4614C11.8451 28.2842 10.0967 31.0368 8.38329 33.7824C1.4877 44.821 -5.42896 55.8174 -12.1279 66.9754C-13.8975 69.9176 -15.66 72.8668 -17.3944 75.8231L-12.5563 75.8231C-7.33894 66.8841 -1.98819 58.0013 3.55216 49.2659C6.73312 44.2522 9.96325 39.2806 13.0951 34.2388C14.5486 31.9005 16.0232 29.5692 17.3574 27.1607C18.0175 25.9669 17.8208 25.6158 18.9514 26.0933C19.8572 26.4725 20.6999 27.9331 21.3599 28.6142C29.6459 37.167 37.679 45.467 44.5536 55.2557C48.0926 60.2974 51.4281 65.4867 54.8057 70.6408C55.9292 72.3472 57.0387 74.0886 58.1762 75.8301L61.3291 75.8301C59.9177 73.6533 58.4992 71.4764 57.158 69.2715C54.0684 64.1876 51.0208 59.0756 47.7837 54.083L47.7696 54.083Z" fill="#3D50DF"/>
</svg>
