<svg width="53" height="35" viewBox="0 0 53 35" fill="none" xmlns="http://www.w3.org/2000/svg">
<path d="M28.8481 26.1352C28.4995 25.8441 27.9013 25.8217 27.6645 26.2887C26.3114 28.9438 25.0286 31.7205 23.941 34.5452L25.822 34.5452C26.7177 32.3347 27.6198 30.1242 28.5794 27.9362C29.1424 28.5951 29.5359 29.4077 29.9678 30.1498C30.5308 31.1127 31.1962 32.002 31.82 32.9201C32.1846 33.4543 32.5397 34.0013 32.8916 34.5452L34.3535 34.5452C33.7233 33.5343 33.0803 32.5298 32.4405 31.5382C31.2985 29.7724 30.4796 27.5075 28.8513 26.1352L28.8481 26.1352Z" fill="#4F64FF"/>
<path d="M26.8614 17.9843C26.5543 17.7987 26.0489 17.8307 25.8058 18.1218C24.4686 19.7117 23.7489 21.8614 22.866 23.7232C21.7687 26.0328 20.6715 28.3456 19.5071 30.6233C18.8353 31.938 18.1443 33.2432 17.4502 34.5452L19.4367 34.5452C19.8718 33.723 20.3068 32.8977 20.7355 32.0692C21.8647 29.8811 22.9331 27.6675 23.992 25.4442C24.8269 23.6912 25.5371 21.5383 26.6535 19.8876C32.2101 23.3297 35.2522 29.155 38.7295 34.5452L40.1914 34.5452C36.5574 28.3744 33.0898 21.727 26.8646 17.9843L26.8614 17.9843Z" fill="#4F64FF"/>
<path d="M2.37682 34.5452C2.93024 33.707 3.47725 32.8689 4.01787 32.0244C8.04533 25.7353 11.7497 19.2223 16.0651 13.1219C17.9908 10.3996 20.1917 7.83724 21.9927 5.03497C22.5493 4.16806 23.0771 3.10601 23.8385 2.40224C24.4239 1.86162 24.232 1.948 24.7118 2.34146C25.4316 2.93007 25.905 3.77779 26.4136 4.53913C28.2754 7.31901 30.8058 9.48469 33.157 11.8327C35.8441 14.5166 38.1985 17.5396 40.5018 20.5498C42.8946 23.6752 45.2458 26.8229 47.6898 29.9099C48.9086 31.4518 50.1306 32.9905 51.3302 34.5452L53 34.5452C52.0371 33.2688 51.0966 31.9732 50.1306 30.7C47.7282 27.5299 45.3673 24.3342 43.0321 21.116C40.7929 18.0291 38.5312 14.9421 35.9944 12.0886C33.4225 9.19679 30.2684 6.79119 28.1315 3.53147C27.0086 1.82004 25.2652 -1.21255 22.9268 0.514872C21.1034 1.86162 19.9646 4.51355 18.6114 6.30495C13.6595 12.866 9.3473 19.7661 5.00954 26.7398C3.37808 29.3661 1.72103 31.9764 1.51002e-06 34.5452L2.37682 34.5452Z" fill="#4F64FF"/>
<path d="M39.5289 24.6381C36.4803 19.9356 32.8591 15.7898 28.9692 11.7719C27.9871 10.7579 26.7843 9.13281 25.1529 9.96133C24.4939 10.294 24.2316 10.985 23.8861 11.5992C23.1631 12.8852 22.3666 14.1391 21.5861 15.3899C18.4447 20.4187 15.2938 25.4282 12.242 30.5113C11.4358 31.8517 10.6329 33.1952 9.84277 34.542L12.0468 34.542C14.4236 30.4697 16.8612 26.4231 19.3852 22.4436C20.8343 20.1595 22.3058 17.8947 23.7326 15.5979C24.3947 14.5326 25.0665 13.4706 25.6743 12.3733C25.975 11.8295 25.8854 11.6696 26.4005 11.8871C26.8131 12.0598 27.197 12.7252 27.4977 13.0355C31.2724 16.9318 34.932 20.713 38.0638 25.1723C39.6761 27.4691 41.1956 29.8331 42.7342 32.1812C43.2461 32.9585 43.7515 33.7518 44.2697 34.5452L45.7061 34.5452C45.0631 33.5535 44.4169 32.5618 43.8059 31.5574C42.3984 29.2413 41.01 26.9125 39.5353 24.6381L39.5289 24.6381Z" fill="#4F64FF"/>
</svg>
